<svg width="85" height="45" viewBox="0 0 85 45" fill="none" xmlns="http://www.w3.org/2000/svg">
<g clip-path="url(#clip0_2052_458)">
<path d="M0.961426 26.8551C1.00605 26.8056 1.07744 26.7651 1.09083 26.7067C1.32732 25.7529 1.72892 24.8755 2.14837 24.0027C2.782 22.689 3.47363 21.4067 4.19651 20.147C4.7052 19.2651 5.20496 18.3788 5.72704 17.506C6.37405 16.4217 7.03446 15.3464 7.6904 14.2711C8.1857 13.4568 8.68993 12.6515 9.19415 11.8416C9.27893 11.7022 9.3771 11.5717 9.46635 11.4367C9.53328 11.3287 9.60467 11.2253 9.65822 11.1083C9.76977 10.8653 9.75193 10.8203 9.54667 10.6539C9.51097 10.6269 9.4842 10.5954 9.45296 10.5639C9.45742 10.5279 9.45296 10.4919 9.46635 10.4784C9.76531 10.105 10.0777 9.74955 10.4837 9.4976C10.8541 9.26365 11.2468 9.29064 11.6439 9.37163C11.7599 9.39412 11.7778 9.47961 11.7376 9.57859C11.6841 9.71356 11.626 9.84853 11.5502 9.97451C10.863 11.1623 10.1848 12.3545 9.4842 13.5333C8.74793 14.775 7.99383 16.0033 7.24418 17.2361C6.69979 18.1269 6.14202 19.0042 5.6021 19.8995C5.35668 20.3044 5.14695 20.7274 4.92831 21.1503C4.62488 21.7307 4.33484 22.3155 4.03587 22.9049C3.62535 23.7193 3.20144 24.5246 2.80877 25.3479C2.6169 25.7574 2.48303 26.2028 2.32685 26.6302C2.309 26.6752 2.31793 26.7337 2.31793 26.8281C2.39379 26.7876 2.45179 26.7741 2.49195 26.7382C2.59458 26.6392 2.69275 26.5312 2.78646 26.4277C4.17866 24.88 5.55747 23.3188 6.96752 21.7891C8.85056 19.7466 10.7559 17.722 12.6568 15.6974C13.2458 15.072 13.8437 14.4556 14.4461 13.8392C15.2315 13.0429 16.0213 12.2556 16.8111 11.4637C17.3867 10.8878 17.9668 10.3209 18.5469 9.74955C19.8097 8.4943 21.1305 7.31104 22.5093 6.20876C23.5758 5.35393 24.6645 4.5306 25.8113 3.79274C26.8822 3.10438 27.9799 2.47901 29.158 2.0201C30.0995 1.65117 31.0678 1.41272 32.0762 1.42172C32.3797 1.42172 32.6831 1.46671 32.9597 1.61968C33.281 1.79964 33.4729 2.07409 33.5398 2.45651C33.6335 3.0054 33.5711 3.54529 33.4595 4.08069C33.165 5.46641 32.6652 6.77115 32.1342 8.06689C31.5318 9.54709 30.8714 11.0048 30.1798 12.4445C29.7871 13.2678 29.3855 14.0867 28.975 14.8965C28.4931 15.8458 28.0067 16.7906 27.5114 17.7355C26.9492 18.8107 26.3869 19.8815 25.8202 20.9478C25.3294 21.8701 24.8296 22.7879 24.321 23.7058C23.3705 25.4244 22.4156 27.1386 21.4607 28.8572C21.0993 29.5096 20.72 30.1485 20.3585 30.8008C20.0774 31.3092 19.8097 31.8311 19.5464 32.3485C19.1894 33.0369 18.8414 33.7253 18.4933 34.4181C17.708 35.9703 16.9182 37.518 16.2355 39.1287C15.8562 40.0195 15.4858 40.9148 15.1467 41.8236C14.8924 42.503 14.7005 43.2049 14.7183 43.9517C14.7228 44.1902 14.7897 44.3341 14.9995 44.4196C15.1378 44.4736 15.2672 44.5591 15.3877 44.6446C15.4367 44.6806 15.4992 44.7705 15.4903 44.8155C15.4724 44.8785 15.401 44.964 15.343 44.9775C15.1735 45.009 14.9995 45.018 14.8254 45.018C14.5354 45.018 14.2543 44.964 13.9955 44.8335C13.6697 44.6716 13.4912 44.4061 13.4823 44.0102C13.4689 43.4613 13.5983 42.9484 13.75 42.4355C14.0133 41.5177 14.3569 40.6269 14.7362 39.7586C15.2359 38.6248 15.7625 37.5 16.2846 36.3752C16.5746 35.7544 16.8736 35.138 17.177 34.5261C17.476 33.9232 17.7883 33.3248 18.0962 32.7265C18.413 32.1101 18.7254 31.4937 19.0467 30.8818C19.6803 29.6851 20.3184 28.4883 20.9565 27.2915C21.4473 26.3782 21.9471 25.4694 22.4468 24.5651C22.9868 23.5843 23.5311 22.6125 24.0711 21.6317C24.8877 20.1425 25.7087 18.6533 26.5119 17.1551C27.034 16.1878 27.5426 15.2115 28.0424 14.2262C28.8411 12.6515 29.6131 11.0633 30.3315 9.43911C30.8045 8.36833 31.2507 7.28854 31.6345 6.17727C31.9245 5.33593 32.1967 4.4856 32.2949 3.59028C32.335 3.24385 32.3395 2.88842 32.3216 2.53749C32.3038 2.14157 32.0941 1.93012 31.7282 1.97511C31.282 2.03359 30.8357 2.12358 30.4074 2.25855C29.2517 2.62298 28.2031 3.23935 27.1812 3.90522C25.5659 4.95801 24.0443 6.15477 22.5896 7.44151C21.3804 8.5078 20.189 9.59658 19.011 10.6989C18.1408 11.5177 17.3019 12.3725 16.4497 13.2184C14.5086 15.1485 12.6434 17.1596 10.7782 19.1707C9.78762 20.2325 8.84164 21.3392 7.87335 22.4235C7.25757 23.1119 6.63732 23.7957 6.01708 24.4841C5.17373 25.4154 4.33484 26.3467 3.48702 27.2735C3.18805 27.5975 2.85785 27.8989 2.42948 27.9979C1.95649 28.1059 1.50135 28.0699 1.09083 27.755C1.05513 27.728 1.01051 27.719 0.97035 27.701V26.8686L0.961426 26.8551Z" fill="#231F20"/>
<path d="M63.2268 18.6038C63.1643 18.5543 63.1152 18.4868 63.0974 18.4958C63.0438 18.5273 63.0037 18.5813 62.959 18.6308C63.0037 18.6668 63.0438 18.7253 63.0884 18.7253C63.1286 18.7253 63.1688 18.6578 63.2268 18.6038ZM68.9428 20.0885C69.1079 20.0885 69.215 20.0075 69.2998 19.814C69.1168 19.859 69.0008 19.9265 68.9428 20.0885ZM49.8536 20.5249C49.7956 20.4664 49.7688 20.4214 49.7331 20.4079C49.3538 20.2775 48.979 20.147 48.5953 20.0345C48.5328 20.0165 48.4168 20.075 48.3766 20.1335C48.2249 20.3674 48.091 20.6149 47.9661 20.8668C47.9393 20.9208 47.9438 21.0288 47.9795 21.0693C48.0107 21.1053 48.1044 21.1008 48.1669 21.0828C48.6488 20.9478 49.1352 20.8038 49.6171 20.6554C49.693 20.6329 49.7599 20.5789 49.8536 20.5204M50.5899 21.1143C50.4694 21.1413 50.3891 21.1458 50.3221 21.1728C49.4386 21.5327 48.5239 21.7127 47.5824 21.7577C47.2834 21.7712 47.0157 21.7127 46.8015 21.4697C46.7122 21.3662 46.6587 21.2583 46.681 21.1188C46.7479 20.6419 46.8818 20.201 47.2477 19.877C47.569 19.5891 47.9527 19.4991 48.3632 19.4901C49.22 19.4721 50.0321 19.6476 50.7907 20.0885C50.9201 20.165 51.0182 20.1335 51.1164 20.039C51.3217 19.85 51.4421 19.5936 51.518 19.3371C51.6965 18.7793 51.9999 18.2933 52.2632 17.7895C52.5621 17.2091 52.8656 16.6242 53.1556 16.0393C53.7179 14.901 54.2712 13.7628 54.8245 12.6245C55.2171 11.8101 55.6009 10.9913 55.9891 10.177C56.9485 8.15687 57.9034 6.13678 58.8583 4.11668C58.8672 4.10318 58.8761 4.08519 58.8806 4.06719C58.9966 3.82424 58.9966 3.82424 58.8137 3.62178C58.9341 3.26635 59.2733 3.0189 59.657 3.0144C59.7953 3.0144 59.9337 3.0144 60.072 3.0279C60.3531 3.05039 60.4602 3.21236 60.3576 3.5003C60.2282 3.86023 60.0898 4.22016 59.9292 4.56659C59.2063 6.13228 58.479 7.69347 57.7472 9.25915C57.417 9.96101 57.0868 10.6584 56.7477 11.3557C56.0025 12.8899 55.2528 14.4196 54.5032 15.9493C53.9856 17.0066 53.459 18.0549 52.9414 19.1077C52.9102 19.1707 52.8923 19.2427 52.8522 19.3596C52.9905 19.3146 53.0887 19.2922 53.1779 19.2517C54.289 18.7793 55.4001 18.3158 56.5023 17.8209C57.649 17.3035 58.7869 16.7502 59.9203 16.2058C61.3973 15.4994 62.8519 14.7346 64.2754 13.9112C65.3597 13.2903 66.4529 12.6875 67.5015 12.0036C68.7599 11.1893 69.987 10.3164 71.2051 9.43012C72.3385 8.60678 73.4362 7.73396 74.5518 6.89263C74.641 6.82514 74.7526 6.77115 74.8597 6.76215C75.0649 6.74416 75.2747 6.75315 75.4844 6.75765C75.5915 6.75765 75.6986 6.78915 75.7387 6.91062C75.7833 7.0411 75.6986 7.11308 75.6138 7.18057C74.8775 7.76995 74.1502 8.36383 73.405 8.93972C72.1645 9.90253 70.8883 10.8068 69.5854 11.6707C68.2601 12.548 66.9215 13.4073 65.5337 14.1587C64.1594 14.9055 62.7761 15.6344 61.3839 16.3407C60.3531 16.8626 59.3045 17.353 58.2559 17.8389C57.0868 18.3743 55.9088 18.8872 54.7308 19.4046C53.9856 19.7331 53.2404 20.0525 52.4908 20.3764C52.3837 20.4214 52.2721 20.4529 52.2721 20.6104C52.2721 20.7859 52.2587 20.9388 52.4327 21.0648C54.1328 22.2796 55.8285 23.4988 57.5196 24.7271C57.9123 25.0105 58.3005 25.3119 58.6932 25.5999C58.769 25.6584 58.8494 25.7034 58.9386 25.7574C59.6347 24.5201 60.3174 23.3053 61.0269 22.0456C60.9243 22.0771 60.8663 22.0861 60.8172 22.1086C60.0675 22.5405 59.2777 22.8734 58.4701 23.1434C58.1131 23.2649 57.7472 23.2604 57.3902 23.1884C57.0913 23.1254 56.9217 22.8194 56.9931 22.4595C57.0466 22.1986 57.1046 21.9331 57.2073 21.6902C57.5375 20.9388 57.89 20.1965 58.238 19.4541C58.3184 19.2787 58.4299 19.1257 58.3273 18.9097C58.3094 18.8692 58.3496 18.7613 58.3942 18.7298C58.662 18.5273 58.9698 18.5273 59.2643 18.6128C59.4651 18.6713 59.5678 18.9187 59.5008 19.1257C59.425 19.3506 59.3491 19.5756 59.251 19.7916C58.9431 20.4664 58.6307 21.1323 58.3139 21.8026C58.2157 22.0141 58.2202 22.2211 58.2871 22.455C58.3674 22.428 58.4344 22.4235 58.4969 22.392C59.425 21.8926 60.3487 21.3932 61.2768 20.8893C61.5401 20.7499 61.7944 20.5924 62.0532 20.4394C62.0889 20.4169 62.1291 20.3899 62.1514 20.3539C62.2674 20.183 62.379 20.012 62.5128 19.8095C62.2451 19.6566 62.1112 19.4091 62.0309 19.1347C61.9774 18.9502 61.955 18.7568 61.9283 18.5678C61.897 18.3563 61.9907 18.1989 62.138 18.0594C62.5842 17.641 63.3785 17.5465 63.8961 17.8614C64.1906 18.0414 64.2977 18.3338 64.3111 18.6713C64.3111 18.7568 64.2575 18.8422 64.2263 18.9277C64.146 19.1392 64.0612 19.3551 63.9898 19.5711C63.9407 19.7196 63.9853 19.841 64.1281 19.913C64.3111 19.9985 64.4896 20.0975 64.6725 20.1695C64.8153 20.2235 64.8555 20.3134 64.851 20.4619C64.8331 20.8218 64.6948 21.1413 64.5699 21.4652C64.5431 21.5372 64.5119 21.6137 64.4806 21.6902C64.6145 21.7757 64.6993 21.6902 64.7841 21.6452C65.3909 21.3032 65.9933 20.9613 66.6002 20.6239C66.7474 20.5429 66.8947 20.4664 67.0509 20.4124C67.5015 20.2505 67.8273 19.8905 68.1709 19.5756C68.3984 19.3686 68.6305 19.2247 68.925 19.1797C69.0098 19.1662 69.0945 19.1437 69.1793 19.1212C69.5898 18.9952 69.9691 19.0807 70.335 19.2832C70.402 19.3191 70.4644 19.3776 70.5135 19.4361C70.7054 19.6746 70.6697 19.9715 70.4377 20.156C70.1342 20.3944 69.7772 20.5249 69.4203 20.6419C68.983 20.7814 68.5368 20.9073 68.0905 21.0243C67.921 21.0693 67.7871 21.1458 67.7113 21.3212C67.5595 21.6632 67.39 21.9961 67.2517 22.347C67.1535 22.59 67.207 22.6485 67.448 22.635C67.921 22.6035 68.3627 22.4415 68.8 22.2526C69.4917 21.9556 70.1387 21.5552 70.7723 21.1368C70.9285 21.0333 71.0043 20.8848 71.0802 20.7139C71.513 19.7286 71.9503 18.7433 72.4055 17.767C72.8919 16.7277 73.3961 15.6929 73.9137 14.6671C74.3733 13.7448 74.8552 12.8404 75.3327 11.9271C75.9083 10.8248 76.4839 9.71806 77.0774 8.62028C77.827 7.22556 78.5856 5.83534 79.3442 4.44961C80.0894 3.09539 80.8435 1.74565 81.5797 0.386926C81.7047 0.161971 81.8653 0.0494933 82.0884 0.0224987C82.2892 3.14633e-06 82.4855 -0.00899506 82.6863 -0.00899506C82.9095 -0.00899506 83.0522 0.197964 82.9853 0.422919C82.9362 0.598384 82.8559 0.76485 82.7756 0.931317C82.3472 1.79964 81.8207 2.60048 81.2584 3.37883C81.0086 3.72076 80.7364 4.0447 80.4999 4.39563C80.3303 4.64758 80.2009 4.93552 80.0537 5.20546C79.5896 6.06929 79.13 6.93762 78.6659 7.80594C77.9118 9.20966 77.1399 10.5999 76.4081 12.0171C75.6004 13.5693 74.8195 15.1305 74.0476 16.7007C73.5032 17.8029 72.99 18.9232 72.4724 20.0435C72.3296 20.3494 72.2404 20.6779 72.1154 20.9883C72.0039 21.2673 71.8566 21.5327 71.754 21.8161C71.522 22.4325 71.3122 23.0579 71.1918 23.7148C71.165 23.8677 71.1739 24.0072 71.2364 24.1467C71.3033 24.3086 71.3613 24.3581 71.5175 24.2952C71.7004 24.2232 71.8923 24.1377 72.0485 24.0117C72.633 23.5348 73.2221 23.0579 73.7798 22.5495C74.4179 21.9691 75.0248 21.3482 75.6495 20.7454C75.8949 20.5069 76.1894 20.5069 76.4839 20.5699C76.6535 20.6059 76.7204 20.7903 76.6356 20.9658C76.5865 21.0693 76.5107 21.1683 76.4348 21.2538C75.6852 22.0906 74.9311 22.9229 74.0565 23.6158C73.4496 24.0972 72.8115 24.5246 72.0842 24.7721C71.6826 24.907 71.2765 24.988 70.8526 24.9385C70.7098 24.9205 70.5671 24.871 70.4377 24.799C70.2815 24.7091 70.1878 24.5516 70.1744 24.3491C70.1387 23.8002 70.1833 23.2604 70.3484 22.7385C70.3886 22.617 70.4153 22.4955 70.4644 22.302C70.3127 22.365 70.219 22.3965 70.1342 22.4415C69.7059 22.689 69.2641 22.9004 68.7866 23.0129C68.4564 23.0894 68.1218 23.1434 67.7871 23.1749C67.4926 23.2019 67.1981 23.1929 66.9036 23.1749C66.743 23.1659 66.5734 23.1344 66.4217 23.0849C66.1807 23.0084 66.0513 22.8059 66.0692 22.5405C66.0826 22.3335 66.1406 22.1266 66.1807 21.9061C66.0826 21.8746 66.0022 21.9466 65.9175 21.9781C65.6587 22.0816 65.4043 22.1941 65.141 22.2886C64.7751 22.4235 64.3869 22.4055 64.0076 22.3875C63.8649 22.3785 63.7131 22.329 63.5837 22.2661C63.3472 22.1491 63.2758 21.8926 63.3696 21.6002C63.4543 21.3392 63.5391 21.0783 63.6239 20.8173C63.6373 20.7634 63.6685 20.7049 63.6596 20.6554C63.6462 20.5924 63.6105 20.5069 63.5614 20.4799C63.5123 20.4529 63.432 20.4799 63.3785 20.5114C63.3294 20.5429 63.2982 20.6059 63.2625 20.6599C62.254 22.1761 61.25 23.6923 60.3353 25.276C60.2371 25.4514 60.1345 25.6224 60.0408 25.7979C59.9738 25.9283 59.8891 25.9868 59.7463 25.9778C59.6347 25.9688 59.5231 25.9778 59.4071 25.9823C59.3804 25.9823 59.3536 26.0138 59.2956 26.0498C59.4964 26.2028 59.6793 26.3377 59.8623 26.4772C60.9198 27.2691 61.9684 28.0699 63.0349 28.8437C63.548 29.2172 64.088 29.5546 64.6234 29.8965C65.6988 30.5849 66.7787 31.2688 67.8585 31.9526C68.9027 32.614 69.9468 33.2709 70.991 33.9232C72.584 34.922 74.1725 35.9208 75.7655 36.9151C76.9212 37.6395 78.0858 38.3593 79.246 39.0792C80.1206 39.6236 80.9952 40.168 81.8698 40.7169C81.9367 40.7574 81.9947 40.8203 82.0616 40.8563C82.1375 40.8878 82.2267 40.9328 82.2981 40.9148C82.6551 40.8383 82.9541 40.9913 83.2173 41.2028C83.5832 41.4997 83.8108 41.9226 84.0116 42.3545C84.0741 42.4895 83.9893 42.593 83.8019 42.611C83.4761 42.638 83.1683 42.5975 82.8693 42.4355C82.191 42.0756 81.5574 41.6437 80.9416 41.1803C80.0938 40.5459 79.2014 39.997 78.3089 39.4526C77.3674 38.8767 76.4393 38.2874 75.5067 37.707C74.5116 37.0861 73.5166 36.4697 72.5215 35.8488C71.3345 35.1065 70.1432 34.3641 68.9562 33.6173C67.8942 32.9514 66.8322 32.2946 65.7791 31.6197C64.2174 30.6209 62.6556 29.6266 61.1117 28.6008C60.4736 28.1779 59.8757 27.674 59.2599 27.2151C57.5553 25.9463 55.8508 24.6731 54.1418 23.4133C53.41 22.8689 52.6648 22.3425 51.9241 21.8116C51.6876 21.6452 51.6519 21.6587 51.5225 21.9331C51.1967 22.6485 50.8799 23.3683 50.5452 24.0747C49.8759 25.4739 49.1932 26.8641 48.5149 28.2589C47.9973 29.3251 47.4797 30.3914 46.9532 31.4532C46.5382 32.2946 46.1143 33.1359 45.6948 33.9727C45.3245 34.7151 44.963 35.4619 44.5838 36.1953C44.1643 37.0141 43.7404 37.8329 43.196 38.5663C43.0666 38.7418 42.9194 38.8407 42.7096 38.8137C42.4955 38.7868 42.2813 38.7598 42.0671 38.7328C41.9422 38.7193 41.8931 38.6383 41.8931 38.5078C41.8975 38.2019 41.8931 37.8959 41.8931 37.5945C41.8931 37.356 41.9243 37.3021 42.1251 37.2211C42.2857 37.1581 42.4553 37.1041 42.6204 37.0591C42.7944 37.0096 42.9194 36.9241 43.0131 36.7352C43.5842 35.5654 44.1777 34.4046 44.7533 33.2349C45.5164 31.6917 46.2794 30.1485 47.038 28.6008C47.4886 27.674 47.9304 26.7427 48.3766 25.8158C48.9567 24.6146 49.5368 23.4178 50.1169 22.2211C50.2597 21.9241 50.398 21.6272 50.5408 21.3302C50.5631 21.2853 50.5631 21.2268 50.5899 21.1098" fill="#231F20"/>
<path d="M31.0101 20.6959C30.9164 20.8623 30.8941 20.9748 31.0146 21.0963C31.1351 20.9748 31.1172 20.8623 31.0101 20.6959ZM31.1797 20.5654C31.26 20.4169 31.2734 20.3089 31.1708 20.201C31.0458 20.3629 31.0458 20.3719 31.1797 20.5654ZM29.783 21.3977C29.734 21.8476 29.6715 22.2211 29.6715 22.6035C29.6715 22.7385 29.7697 22.7879 29.8946 22.7295C30.0954 22.6305 30.2516 22.4775 30.3765 22.284C30.4434 22.1761 30.4211 22.0816 30.3364 21.9871C30.2114 21.8521 30.0954 21.6992 29.9749 21.5597C29.9348 21.5147 29.8857 21.4832 29.783 21.3932M35.0172 21.3167C35.1332 21.2673 35.2001 21.2538 35.2492 21.2133C35.7668 20.8128 36.2844 20.4079 36.8021 20.003C36.8645 19.9535 36.9225 19.895 36.9716 19.8275C37.0386 19.7376 37.0207 19.6566 36.927 19.5981C36.7797 19.5081 36.6325 19.5081 36.4763 19.5801C35.8427 19.886 35.392 20.3944 35.0618 21.0378C35.0306 21.1008 35.035 21.1863 35.0172 21.3167ZM31.8847 21.7936C32.1034 21.7127 32.264 21.6587 32.4202 21.5912C32.9557 21.3662 33.451 21.0603 33.915 20.7049C33.982 20.6509 34.0578 20.5879 34.1024 20.5159C34.4906 19.8905 35.0663 19.5171 35.6642 19.1752C36.0479 18.9637 36.454 18.8287 36.8824 18.8287C37.0876 18.8287 37.2974 18.8602 37.4982 18.9052C37.7659 18.9682 37.9801 18.9187 38.1764 18.6938C38.3772 18.4688 38.6182 18.2798 38.8413 18.0774C39.0421 17.8974 39.283 17.9154 39.5106 17.9559C39.7025 17.9919 39.756 18.1809 39.6534 18.3968C39.5061 18.7073 39.3455 19.0177 39.1938 19.3281C38.8725 19.994 38.5602 20.6644 38.3371 21.3752C38.2746 21.5777 38.23 21.7846 38.1853 21.9916C38.1719 22.0501 38.1943 22.1131 38.2032 22.2166C38.3014 22.1851 38.3861 22.1761 38.4575 22.1401C39.5106 21.6362 40.5369 21.0783 41.5364 20.4709C41.6123 20.4259 41.6881 20.3854 41.764 20.3359C41.8756 20.2685 41.9871 20.2505 42.1121 20.3089C42.1835 20.3404 42.2638 20.3494 42.3396 20.3674C42.5092 20.4079 42.5627 20.5744 42.4467 20.7139C42.3842 20.7903 42.3039 20.8443 42.2236 20.9028C41.532 21.3977 40.8314 21.8701 40.0773 22.2571C39.6177 22.491 39.1447 22.7025 38.636 22.7924C38.2567 22.8599 37.8774 22.8869 37.4982 22.7969C37.159 22.7115 37.0653 22.563 37.0341 22.1941C36.9984 21.7846 37.0876 21.4067 37.2304 21.0333C37.2483 20.9838 37.2706 20.9298 37.284 20.8803C37.2884 20.8668 37.2795 20.8443 37.2661 20.7948C37.217 20.8038 37.1501 20.7948 37.1144 20.8263C37.0386 20.8848 36.9761 20.9658 36.9047 21.0333C36.4585 21.4832 35.9676 21.8701 35.3518 21.9871C35.0127 22.0501 34.6602 22.0321 34.3166 22.0276C34.1515 22.0276 33.9909 21.9511 33.8883 21.7981C33.8169 21.6992 33.7455 21.6947 33.6428 21.7487C32.9824 22.0996 32.2863 22.311 31.5456 22.3155C31.4385 22.3155 31.3716 22.3605 31.318 22.464C31.1083 22.8824 30.7246 23.0714 30.3542 23.2649C30.2962 23.2963 30.2203 23.2963 30.1489 23.2963C29.8812 23.3008 29.609 23.3008 29.3413 23.2963C28.9754 23.2918 28.7121 23.0399 28.6943 22.6485C28.6541 21.7217 28.9085 20.8983 29.5198 20.219C29.6938 20.0255 29.8946 19.859 30.0731 19.6746C30.4211 19.3236 30.854 19.2157 31.3091 19.1797C31.5858 19.1572 31.8089 19.2741 31.9472 19.5216C32.148 19.8635 32.2863 20.2235 32.1302 20.6464C32.0275 20.9163 31.9784 21.2133 31.9115 21.5012C31.8981 21.5687 31.8937 21.6407 31.8758 21.7891" fill="#231F20"/>
</g>
<defs>
<clipPath id="clip0_2052_458">
<rect width="83.0769" height="45" fill="white" transform="translate(0.961426)"/>
</clipPath>
</defs>
</svg>
