<svg xmlns="http://www.w3.org/2000/svg" xml:space="preserve" width="407.059" height="136.21" style="shape-rendering:geometricPrecision;text-rendering:geometricPrecision;image-rendering:optimizeQuality;fill-rule:evenodd;clip-rule:evenodd" viewBox="0 0 10770.1 3603.9" xmlns:xlink="http://www.w3.org/1999/xlink"><defs><clipPath id="id0" style="clip-rule:nonzero"><path d="M4633.89 1230.99c-65.62 25.4-126.74 59.8-186.27 97.9-63.76 40.75-124.35 86.25-183.89 133.35-76.99 60.85-150.55 126.21-220.93 195.53-32.28 31.75-64.56 62.97-96.57 94.72-43.92 43.66-88.11 87.31-131.76 131.23-33.6 33.87-66.94 68-99.75 102.66-105.83 111.92-211.93 223.57-316.71 336.55-78.58 84.67-155.31 170.66-232.83 256.38-5.29 5.82-10.58 11.91-16.4 17.2-2.12 2.12-5.29 2.91-9.53 5.03 0-5.29-.26-8.2.53-10.85 8.73-23.81 15.88-48.15 26.72-70.91 21.7-45.51 45.51-89.96 68.26-134.94 16.67-32.28 32.81-64.56 49.74-96.84 12.17-23.28 23.81-46.83 37.57-69.06 29.9-49.48 61.12-97.9 91.28-147.11 41.8-68 83.61-136 124.88-204.52 38.89-65.09 76.73-130.97 115.09-196.59 3.97-6.88 7.41-14.29 10.32-21.96 2.38-5.56 1.32-10.32-5.03-11.38-22.23-4.5-43.92-6.09-64.56 6.88-22.49 14.02-39.95 33.6-56.62 54.24-.79.79-.53 2.91-.79 4.76 1.85 1.59 3.44 3.44 5.29 5.03 11.38 9.26 12.17 11.64 6.09 25.14-2.91 6.35-6.88 12.17-10.58 17.99-5.03 7.67-10.32 14.82-15.08 22.49-28.05 44.71-56.09 89.43-83.61 134.14-36.78 59.53-73.55 118.8-109.54 178.59-29.1 48.15-56.89 97.1-85.2 145.79-40.22 69.59-78.85 140.23-114.04 212.99-23.28 48.15-45.77 96.57-59 149.23-.79 3.18-4.76 5.56-7.14 8.2v46.04c2.38.79 4.76 1.59 6.61 2.91 22.75 17.2 48.42 19.31 74.61 13.23 24.08-5.56 42.33-21.96 59-39.95 47.36-51.06 94.19-102.66 141.02-153.99 34.66-37.84 69.06-75.67 103.45-113.77 53.98-59.8 106.63-120.91 161.93-179.65 103.98-111.13 207.7-222.25 315.91-328.88 47.36-46.83 93.93-93.93 142.61-139.17 65.62-60.85 132.03-120.91 199.5-179.92 81.23-70.91 165.63-137.32 255.85-195.26 56.89-36.78 115.36-70.91 179.65-91.02 23.81-7.41 48.68-12.44 73.55-15.61 20.37-2.65 32.28 9 33.07 30.96.79 19.31.53 38.89-1.59 57.94-5.56 49.48-20.64 96.31-36.78 142.88-21.17 61.38-46.3 120.91-72.5 180.18-39.95 89.69-82.81 177.54-127.26 264.58-27.78 54.24-56.09 108.21-85.2 161.66-44.98 82.81-90.49 165.1-136 247.39-29.9 54.24-60.33 107.95-90.49 162.19-27.78 50.01-55.56 100.28-83.08 150.81-35.72 65.88-71.17 132.03-106.36 198.17-17.99 33.87-35.19 68-52.92 101.86-17.2 33.07-34.4 66.15-51.06 99.48-16.93 33.87-33.6 67.73-49.74 102.13-29.1 62.18-58.47 124.09-86.25 186.8-21.17 47.89-40.22 97.1-55.03 147.9-8.2 28.31-15.61 56.62-14.82 87.05.53 22.23 10.58 36.51 28.58 45.51 14.55 7.14 30.43 10.05 46.3 10.05 9.53 0 19.31-.53 28.84-2.38 3.18-.53 7.14-5.29 8.2-9 .53-2.38-2.91-7.41-5.56-9.26-6.54-4.99-13.76-9.17-21.37-12.43-11.64-4.76-15.35-12.7-15.61-25.93-.79-41.28 9.79-79.9 24.08-117.48 19.05-50.01 39.69-99.48 60.85-148.7 38.1-88.9 82.02-174.36 125.94-260.09 19.58-38.1 38.89-76.2 58.74-114.3 14.82-28.58 29.63-57.41 45.24-85.46 20.11-35.98 41.01-71.44 61.38-107.42 53.18-94.72 106.36-189.44 159.28-284.43 28.05-50.54 55.83-101.34 83.34-152.14 31.75-59 62.97-118 94.19-177.54 27.52-52.12 54.77-104.25 81.49-156.9 22.75-44.98 45.24-89.96 67.2-135.47 38.36-79.38 75.14-159.81 108.74-241.83 29.37-71.7 57.41-143.93 73.82-220.13 6.35-29.37 9.79-59.27 4.5-89.69-3.7-21.17-14.55-36.51-32.28-46.3-15.35-8.47-32.28-10.85-49.21-10.85l-3.43.04c-55.03 0-107.69 13.23-159.01 33.07l-1.86.26zm0 0z"/></clipPath><clipPath id="id1" style="clip-rule:nonzero"><path d="M4633.89 1230.99c-65.62 25.4-126.74 59.8-186.27 97.9-63.76 40.75-124.35 86.25-183.89 133.35-76.99 60.85-150.55 126.21-220.93 195.53-32.28 31.75-64.56 62.97-96.57 94.72-43.92 43.66-88.11 87.31-131.76 131.23-33.6 33.87-66.94 68-99.75 102.66-105.83 111.92-211.93 223.57-316.71 336.55-78.58 84.67-155.31 170.66-232.83 256.38-5.29 5.82-10.58 11.91-16.4 17.2-2.12 2.12-5.29 2.91-9.53 5.03 0-5.29-.26-8.2.53-10.85 8.73-23.81 15.88-48.15 26.72-70.91 21.7-45.51 45.51-89.96 68.26-134.94 16.67-32.28 32.81-64.56 49.74-96.84 12.17-23.28 23.81-46.83 37.57-69.06 29.9-49.48 61.12-97.9 91.28-147.11 41.8-68 83.61-136 124.88-204.52 38.89-65.09 76.73-130.97 115.09-196.59 3.97-6.88 7.41-14.29 10.32-21.96 2.38-5.56 1.32-10.32-5.03-11.38-22.23-4.5-43.92-6.09-64.56 6.88-22.49 14.02-39.95 33.6-56.62 54.24-.79.79-.53 2.91-.79 4.76 1.85 1.59 3.44 3.44 5.29 5.03 11.38 9.26 12.17 11.64 6.09 25.14-2.91 6.35-6.88 12.17-10.58 17.99-5.03 7.67-10.32 14.82-15.08 22.49-28.05 44.71-56.09 89.43-83.61 134.14-36.78 59.53-73.55 118.8-109.54 178.59-29.1 48.15-56.89 97.1-85.2 145.79-40.22 69.59-78.85 140.23-114.04 212.99-23.28 48.15-45.77 96.57-59 149.23-.79 3.18-4.76 5.56-7.14 8.2v46.04c2.38.79 4.76 1.59 6.61 2.91 22.75 17.2 48.42 19.31 74.61 13.23 24.08-5.56 42.33-21.96 59-39.95 47.36-51.06 94.19-102.66 141.02-153.99 34.66-37.84 69.06-75.67 103.45-113.77 53.98-59.8 106.63-120.91 161.93-179.65 103.98-111.13 207.7-222.25 315.91-328.88 47.36-46.83 93.93-93.93 142.61-139.17 65.62-60.85 132.03-120.91 199.5-179.92 81.23-70.91 165.63-137.32 255.85-195.26 56.89-36.78 115.36-70.91 179.65-91.02 23.81-7.41 48.68-12.44 73.55-15.61 20.37-2.65 32.28 9 33.07 30.96.79 19.31.53 38.89-1.59 57.94-5.56 49.48-20.64 96.31-36.78 142.88-21.17 61.38-46.3 120.91-72.5 180.18-39.95 89.69-82.81 177.54-127.26 264.58-27.78 54.24-56.09 108.21-85.2 161.66-44.98 82.81-90.49 165.1-136 247.39-29.9 54.24-60.33 107.95-90.49 162.19-27.78 50.01-55.56 100.28-83.08 150.81-35.72 65.88-71.17 132.03-106.36 198.17-17.99 33.87-35.19 68-52.92 101.86-17.2 33.07-34.4 66.15-51.06 99.48-16.93 33.87-33.6 67.73-49.74 102.13-29.1 62.18-58.47 124.09-86.25 186.8-21.17 47.89-40.22 97.1-55.03 147.9-8.2 28.31-15.61 56.62-14.82 87.05.53 22.23 10.58 36.51 28.58 45.51 14.55 7.14 30.43 10.05 46.3 10.05 9.53 0 19.31-.53 28.84-2.38 3.18-.53 7.14-5.29 8.2-9 .53-2.38-2.91-7.41-5.56-9.26-6.54-4.99-13.76-9.17-21.37-12.43-11.64-4.76-15.35-12.7-15.61-25.93-.79-41.28 9.79-79.9 24.08-117.48 19.05-50.01 39.69-99.48 60.85-148.7 38.1-88.9 82.02-174.36 125.94-260.09 19.58-38.1 38.89-76.2 58.74-114.3 14.82-28.58 29.63-57.41 45.24-85.46 20.11-35.98 41.01-71.44 61.38-107.42 53.18-94.72 106.36-189.44 159.28-284.43 28.05-50.54 55.83-101.34 83.34-152.14 31.75-59 62.97-118 94.19-177.54 27.52-52.12 54.77-104.25 81.49-156.9 22.75-44.98 45.24-89.96 67.2-135.47 38.36-79.38 75.14-159.81 108.74-241.83 29.37-71.7 57.41-143.93 73.82-220.13 6.35-29.37 9.79-59.27 4.5-89.69-3.7-21.17-14.55-36.51-32.28-46.3-15.35-8.47-32.28-10.85-49.21-10.85l-3.43.04c-55.03 0-107.69 13.23-159.01 33.07l-1.86.26zm0 0z"/></clipPath><clipPath id="id2" style="clip-rule:nonzero"><path d="M5682.69 2284.03c-1.85-2.12-2.38-8.2-.79-11.11 6.88-13.76 14.55-27.52 22.75-40.48 2.12-3.44 8.73-6.61 12.17-5.56 21.17 6.09 42.33 13.23 63.24 20.64 1.85.53 3.18 3.18 6.61 6.35-5.03 2.91-9 6.09-12.96 7.41-26.72 8.2-53.71 16.14-80.7 23.55-1.75.52-3.57.79-5.4.79h-.15c-2.12 0-3.97-.53-5.03-1.59h.26zm1167.34-54.5c3.18-9 9.79-12.44 19.84-15.08-4.76 10.58-10.58 15.08-19.58 15.08h-.26zm-333.37-80.43c2.65-2.65 4.76-5.82 7.67-7.41 1.06-.53 3.7 3.18 7.14 6.09-3.18 3.18-5.56 6.61-7.67 6.61-2.38 0-4.76-3.44-7.14-5.29zm1065.21-1027.38c-12.44 1.59-21.43 7.67-28.31 20.11-41.01 74.88-83.34 149.49-124.62 224.37-42.33 76.73-84.4 153.46-126.21 230.45-32.81 60.59-64.82 121.71-97.1 182.56-26.46 50.27-53.45 100.54-79.11 151.34-28.58 56.62-56.62 113.77-83.87 171.19-25.4 53.71-49.74 108.21-73.82 162.72-4.23 9.53-8.47 17.73-17.2 23.28-35.19 23.28-71.17 45.24-109.8 61.65-24.34 10.32-48.95 19.31-75.14 21.17-13.49.79-16.4-2.38-10.85-15.88 7.67-19.31 17.2-37.57 25.4-56.62 4.23-9.79 11.64-14.02 21.17-16.4 24.87-6.61 49.48-13.23 74.08-21.17 19.84-6.35 39.42-13.49 56.62-26.72 13.23-10.32 15.08-26.72 4.23-39.95-2.65-3.44-6.35-6.61-10.05-8.47-20.37-11.11-41.54-15.88-64.29-9-4.5 1.32-9.26 2.65-14.02 3.44-16.4 2.38-29.37 10.32-42.07 21.7-19.31 17.46-37.31 37.31-62.44 46.3-8.73 3.18-16.93 7.14-25.14 11.64-33.6 18.79-67.47 37.57-101.07 56.36-4.76 2.91-9.53 7.41-16.93 2.65 1.59-4.23 3.44-8.47 4.76-12.44 6.88-17.99 14.82-35.45 15.61-55.3.26-8.2-2.12-13.23-9.79-16.14-10.32-3.97-20.37-9.53-30.43-14.29-8.2-3.7-10.58-10.58-7.67-18.79 3.97-11.91 8.73-23.81 12.96-35.45 1.85-4.76 4.76-9.53 4.76-14.02-.79-18.52-6.61-34.93-23.02-44.71-28.58-17.2-73.03-12.17-97.9 10.85-8.2 7.67-13.23 16.14-11.64 28.05 1.59 10.58 2.91 21.17 5.82 31.22 4.5 15.08 11.91 28.84 26.99 37.31-7.41 10.85-13.49 20.64-20.11 29.9-1.32 1.85-3.44 3.44-5.56 4.5-14.29 8.47-28.58 17.2-43.13 24.87-51.59 27.78-103.19 55.56-154.78 83.08-3.44 1.85-7.14 2.12-11.64 3.7-3.7-12.96-3.97-24.34 1.32-35.98 17.73-37.04 35.19-73.82 52.12-111.13 5.56-11.91 9.79-24.34 14.02-36.78 3.7-11.64-1.85-25.4-12.96-28.58-16.67-4.5-33.6-4.76-48.42 6.61-2.38 1.85-4.76 7.94-3.7 10.05 5.82 11.91-.53 20.37-5.03 30.16-19.31 41.01-38.89 82.02-57.41 123.3-5.82 13.23-9 28.05-11.91 42.6-3.97 19.84 5.56 37.04 22.23 40.22 20.11 4.23 40.22 4.23 60.33-2.38 45.24-15.08 89.16-33.34 130.7-57.15 2.65-1.59 5.82-1.85 11.64-3.7-39.42 69.59-77.52 136.53-116.15 205.05-4.76-3.18-9.53-5.56-13.49-8.73-21.7-16.14-43.39-32.54-65.35-48.15-94.46-67.73-188.65-135.2-283.37-202.14-9.79-6.88-9-15.61-9-25.14 0-8.73 6.09-10.32 12.17-12.96 41.54-17.99 83.34-35.45 124.62-53.71 65.62-28.58 131.23-56.89 196.32-86.52 58.47-26.72 116.95-53.71 174.36-82.55a9587.945 9587.945 0 0 0 230.98-120.65c77.52-41.54 151.87-88.9 225.69-137.58 72.5-47.63 143.67-97.9 212.73-151.08 41.28-31.75 82.02-64.82 123.03-97.37 4.76-3.7 9.79-7.67 7.14-15.08-2.38-6.61-8.2-8.2-14.29-8.47-11.64 0-23.28-.79-34.66.26-5.82.53-12.17 3.44-16.93 7.14-62.18 46.57-123.3 94.72-186.53 140.23-67.73 48.95-136.26 97.1-206.11 142.08-58.47 37.57-119.59 70.91-179.65 105.3-79.38 45.51-160.34 87.58-242.62 126.74-63.24 30.16-126.47 60.59-190.5 89.16-61.12 27.52-123.3 52.92-184.94 79.11-5.03 2.12-10.58 3.44-18.26 5.82 2.38-6.61 3.18-10.58 4.76-14.02 28.84-58.21 58.21-116.15 87.05-174.63 41.8-84.4 83.61-169.07 125.15-253.74 18.79-38.63 37.31-76.99 55.56-115.89 40.75-86.25 81.49-172.51 121.71-259.03 9-19.05 16.67-39.16 23.81-59 5.82-15.88 0-24.87-15.88-26.19-7.67-.53-15.35-.79-23.28-.79-21.43.26-40.22 14.02-47.1 33.6 10.05 11.11 10.32 11.11 3.7 24.61-.26 1.06-.79 1.85-1.32 2.65-53.45 111.65-106.63 223.31-159.81 334.7-21.43 44.98-42.86 90.22-64.82 135.2-30.69 62.97-61.65 125.94-92.87 188.65-16.14 32.54-33.07 64.56-49.74 96.84-14.55 28.05-31.49 54.77-41.28 85.46-4.5 14.29-11.11 28.31-22.49 38.89-5.56 5.29-11.11 6.88-18.26 2.65-42.07-24.34-87.58-34.13-135.2-33.07-22.75.53-44.19 5.56-62.18 21.43-20.37 17.99-27.78 42.33-31.49 68.53-1.06 7.67 1.85 13.76 6.61 19.31 11.91 13.23 26.99 16.67 43.66 15.88 52.39-2.65 103.45-12.44 152.66-32.28 3.7-1.59 7.94-1.85 14.82-3.18-1.59 6.61-1.59 9.79-2.91 12.17-7.67 16.4-15.61 32.81-23.55 49.21-32.28 66.15-64.56 132.29-96.84 198.7-24.87 51.33-49.21 102.92-74.61 153.99-42.07 85.46-84.4 170.92-127 256.12-32.01 64.56-65.09 128.59-97.1 193.15-5.03 10.32-12.17 15.08-21.7 17.73-9.26 2.65-18.52 5.56-27.78 9-11.38 4.5-12.96 7.41-12.96 20.64v50.54c0 7.41 2.65 11.64 9.79 12.44 11.91 1.59 24.08 2.91 35.98 4.5 11.91 1.59 19.84-3.97 27.25-13.76 30.43-40.48 53.98-85.73 77.26-130.97 21.17-40.75 41.28-82.02 61.91-122.77 23.28-46.3 46.83-92.6 69.85-139.17 29.1-58.74 57.94-117.48 86.78-176.48 37.84-76.99 75.94-153.72 113.24-230.98 18.79-39.16 36.51-78.85 54.5-118.27 7.14-15.35 9.26-16.14 22.23-6.88 41.28 29.37 82.55 58.47 123.56 88.64 95.25 69.85 190.24 139.96 284.96 210.08 34.4 25.4 67.47 53.18 103.19 76.46 85.99 56.62 173.04 111.65 260.09 166.69 58.74 37.31 118 73.82 177.01 110.6 66.15 41.01 132.29 82.29 198.44 123.03 55.3 34.13 110.86 68.26 166.42 102.39 52.12 32.01 103.72 64.82 156.1 96.57 49.74 30.16 99.48 60.59 146.58 95.51 34.4 25.4 69.85 49.21 107.42 69.32 16.67 8.73 33.87 11.11 52.12 9.53 10.32-.79 15.08-6.61 11.64-14.02-11.11-24.08-23.81-47.36-44.19-63.76-14.82-11.91-31.22-20.37-51.06-16.14-3.97.79-9-1.32-13.23-3.18-3.7-1.85-7.14-5.29-10.85-7.67l-146.05-90.49c-64.56-39.95-129.38-79.64-193.68-119.59-88.64-54.77-177.27-110.07-265.91-165.1-58.21-36.25-116.42-72.5-174.36-109.01-60.33-37.57-120.39-75.41-180.18-113.51-29.9-18.79-59.8-37.57-88.64-58.21-59.27-42.86-118-87.05-176.74-130.7-10.05-7.67-20.11-15.08-31.49-23.55 3.18-1.85 4.5-3.7 6.09-3.7 6.35-.53 12.44-.79 18.79 0 7.67.53 12.7-2.65 16.4-9.79 5.03-9.79 10.58-19.31 16.4-28.84 51.06-87.31 106.89-171.19 162.98-254.79 1.85-2.91 3.7-6.61 6.35-8.2 2.91-1.85 7.67-3.18 10.32-1.59 2.91 1.32 4.76 6.09 5.56 9.53.53 2.65-1.06 5.82-1.85 8.73-4.76 14.55-9.53 28.84-14.29 43.39-5.29 16.14-1.32 30.16 11.91 36.78 7.14 3.7 15.61 6.35 23.55 6.88 21.17 1.06 42.6 2.12 62.97-5.56 14.55-5.29 28.84-11.38 43.13-17.2 4.76-1.85 9-5.82 14.55-3.97-2.38 12.17-5.29 23.55-6.35 34.93-1.06 14.82 6.35 25.66 19.58 30.16 8.73 2.91 17.99 4.5 26.99 5.03 16.4.79 32.81 1.32 49.21 0a392.2 392.2 0 0 0 55.56-8.73c26.46-6.35 51.06-17.99 75.14-31.49 4.76-2.65 10.05-4.23 18.26-7.94-2.91 10.58-4.23 17.46-6.61 24.08-9.26 29.1-11.91 58.74-9.79 89.16.79 11.38 5.82 19.84 14.55 24.87 7.14 3.97 15.08 6.88 23.02 7.94 23.55 2.65 46.04-1.85 68.53-9.26 40.48-13.49 75.94-37.31 109.8-63.76 48.68-38.1 90.75-83.87 132.29-130.44 4.23-4.76 8.47-10.05 11.11-15.88 4.76-9.79 1.06-20.11-8.47-21.96-16.4-3.44-32.81-3.44-46.3 9.79-34.66 33.34-68.53 67.47-104.25 99.75-31.22 28.31-63.76 54.5-96.31 80.96-8.73 6.88-19.31 11.64-29.63 15.61-8.73 3.44-11.64.79-15.61-8.2-3.18-7.67-3.97-15.35-2.38-23.81 6.61-36.25 18.52-70.64 31.49-104.78 5.82-15.61 13.76-30.16 20.11-45.77 6.88-17.2 12.17-35.45 19.84-52.12 28.84-61.91 57.41-123.56 87.58-184.68 42.86-86.78 86.52-173.04 131.5-258.76 40.75-78.05 83.87-155.05 125.94-232.57 25.93-47.89 51.59-95.78 77.26-143.4 8.2-15.08 15.35-30.96 24.87-44.98 13.23-19.31 28.31-37.31 42.33-56.36 31.49-42.86 60.59-87.05 84.4-135.2 4.5-9 9-18.26 11.64-28.05 3.7-12.7-4.23-23.81-16.67-24.08l-3.66-.02c-9.79 0-19.58.53-29.37 1.59l-.53.26zm0 0z"/></clipPath><clipPath id="id3" style="clip-rule:nonzero"><path d="M5682.69 2284.03c-1.85-2.12-2.38-8.2-.79-11.11 6.88-13.76 14.55-27.52 22.75-40.48 2.12-3.44 8.73-6.61 12.17-5.56 21.17 6.09 42.33 13.23 63.24 20.64 1.85.53 3.18 3.18 6.61 6.35-5.03 2.91-9 6.09-12.96 7.41-26.72 8.2-53.71 16.14-80.7 23.55-1.75.52-3.57.79-5.4.79h-.15c-2.12 0-3.97-.53-5.03-1.59h.26zm1167.34-54.5c3.18-9 9.79-12.44 19.84-15.08-4.76 10.58-10.58 15.08-19.58 15.08h-.26zm-333.37-80.43c2.65-2.65 4.76-5.82 7.67-7.41 1.06-.53 3.7 3.18 7.14 6.09-3.18 3.18-5.56 6.61-7.67 6.61-2.38 0-4.76-3.44-7.14-5.29zm1065.21-1027.38c-12.44 1.59-21.43 7.67-28.31 20.11-41.01 74.88-83.34 149.49-124.62 224.37-42.33 76.73-84.4 153.46-126.21 230.45-32.81 60.59-64.82 121.71-97.1 182.56-26.46 50.27-53.45 100.54-79.11 151.34-28.58 56.62-56.62 113.77-83.87 171.19-25.4 53.71-49.74 108.21-73.82 162.72-4.23 9.53-8.47 17.73-17.2 23.28-35.19 23.28-71.17 45.24-109.8 61.65-24.34 10.32-48.95 19.31-75.14 21.17-13.49.79-16.4-2.38-10.85-15.88 7.67-19.31 17.2-37.57 25.4-56.62 4.23-9.79 11.64-14.02 21.17-16.4 24.87-6.61 49.48-13.23 74.08-21.17 19.84-6.35 39.42-13.49 56.62-26.72 13.23-10.32 15.08-26.72 4.23-39.95-2.65-3.44-6.35-6.61-10.05-8.47-20.37-11.11-41.54-15.88-64.29-9-4.5 1.32-9.26 2.65-14.02 3.44-16.4 2.38-29.37 10.32-42.07 21.7-19.31 17.46-37.31 37.31-62.44 46.3-8.73 3.18-16.93 7.14-25.14 11.64-33.6 18.79-67.47 37.57-101.07 56.36-4.76 2.91-9.53 7.41-16.93 2.65 1.59-4.23 3.44-8.47 4.76-12.44 6.88-17.99 14.82-35.45 15.61-55.3.26-8.2-2.12-13.23-9.79-16.14-10.32-3.97-20.37-9.53-30.43-14.29-8.2-3.7-10.58-10.58-7.67-18.79 3.97-11.91 8.73-23.81 12.96-35.45 1.85-4.76 4.76-9.53 4.76-14.02-.79-18.52-6.61-34.93-23.02-44.71-28.58-17.2-73.03-12.17-97.9 10.85-8.2 7.67-13.23 16.14-11.64 28.05 1.59 10.58 2.91 21.17 5.82 31.22 4.5 15.08 11.91 28.84 26.99 37.31-7.41 10.85-13.49 20.64-20.11 29.9-1.32 1.85-3.44 3.44-5.56 4.5-14.29 8.47-28.58 17.2-43.13 24.87-51.59 27.78-103.19 55.56-154.78 83.08-3.44 1.85-7.14 2.12-11.64 3.7-3.7-12.96-3.97-24.34 1.32-35.98 17.73-37.04 35.19-73.82 52.12-111.13 5.56-11.91 9.79-24.34 14.02-36.78 3.7-11.64-1.85-25.4-12.96-28.58-16.67-4.5-33.6-4.76-48.42 6.61-2.38 1.85-4.76 7.94-3.7 10.05 5.82 11.91-.53 20.37-5.03 30.16-19.31 41.01-38.89 82.02-57.41 123.3-5.82 13.23-9 28.05-11.91 42.6-3.97 19.84 5.56 37.04 22.23 40.22 20.11 4.23 40.22 4.23 60.33-2.38 45.24-15.08 89.16-33.34 130.7-57.15 2.65-1.59 5.82-1.85 11.64-3.7-39.42 69.59-77.52 136.53-116.15 205.05-4.76-3.18-9.53-5.56-13.49-8.73-21.7-16.14-43.39-32.54-65.35-48.15-94.46-67.73-188.65-135.2-283.37-202.14-9.79-6.88-9-15.61-9-25.14 0-8.73 6.09-10.32 12.17-12.96 41.54-17.99 83.34-35.45 124.62-53.71 65.62-28.58 131.23-56.89 196.32-86.52 58.47-26.72 116.95-53.71 174.36-82.55a9587.945 9587.945 0 0 0 230.98-120.65c77.52-41.54 151.87-88.9 225.69-137.58 72.5-47.63 143.67-97.9 212.73-151.08 41.28-31.75 82.02-64.82 123.03-97.37 4.76-3.7 9.79-7.67 7.14-15.08-2.38-6.61-8.2-8.2-14.29-8.47-11.64 0-23.28-.79-34.66.26-5.82.53-12.17 3.44-16.93 7.14-62.18 46.57-123.3 94.72-186.53 140.23-67.73 48.95-136.26 97.1-206.11 142.08-58.47 37.57-119.59 70.91-179.65 105.3-79.38 45.51-160.34 87.58-242.62 126.74-63.24 30.16-126.47 60.59-190.5 89.16-61.12 27.52-123.3 52.92-184.94 79.11-5.03 2.12-10.58 3.44-18.26 5.82 2.38-6.61 3.18-10.58 4.76-14.02 28.84-58.21 58.21-116.15 87.05-174.63 41.8-84.4 83.61-169.07 125.15-253.74 18.79-38.63 37.31-76.99 55.56-115.89 40.75-86.25 81.49-172.51 121.71-259.03 9-19.05 16.67-39.16 23.81-59 5.82-15.88 0-24.87-15.88-26.19-7.67-.53-15.35-.79-23.28-.79-21.43.26-40.22 14.02-47.1 33.6 10.05 11.11 10.32 11.11 3.7 24.61-.26 1.06-.79 1.85-1.32 2.65-53.45 111.65-106.63 223.31-159.81 334.7-21.43 44.98-42.86 90.22-64.82 135.2-30.69 62.97-61.65 125.94-92.87 188.65-16.14 32.54-33.07 64.56-49.74 96.84-14.55 28.05-31.49 54.77-41.28 85.46-4.5 14.29-11.11 28.31-22.49 38.89-5.56 5.29-11.11 6.88-18.26 2.65-42.07-24.34-87.58-34.13-135.2-33.07-22.75.53-44.19 5.56-62.18 21.43-20.37 17.99-27.78 42.33-31.49 68.53-1.06 7.67 1.85 13.76 6.61 19.31 11.91 13.23 26.99 16.67 43.66 15.88 52.39-2.65 103.45-12.44 152.66-32.28 3.7-1.59 7.94-1.85 14.82-3.18-1.59 6.61-1.59 9.79-2.91 12.17-7.67 16.4-15.61 32.81-23.55 49.21-32.28 66.15-64.56 132.29-96.84 198.7-24.87 51.33-49.21 102.92-74.61 153.99-42.07 85.46-84.4 170.92-127 256.12-32.01 64.56-65.09 128.59-97.1 193.15-5.03 10.32-12.17 15.08-21.7 17.73-9.26 2.65-18.52 5.56-27.78 9-11.38 4.5-12.96 7.41-12.96 20.64v50.54c0 7.41 2.65 11.64 9.79 12.44 11.91 1.59 24.08 2.91 35.98 4.5 11.91 1.59 19.84-3.97 27.25-13.76 30.43-40.48 53.98-85.73 77.26-130.97 21.17-40.75 41.28-82.02 61.91-122.77 23.28-46.3 46.83-92.6 69.85-139.17 29.1-58.74 57.94-117.48 86.78-176.48 37.84-76.99 75.94-153.72 113.24-230.98 18.79-39.16 36.51-78.85 54.5-118.27 7.14-15.35 9.26-16.14 22.23-6.88 41.28 29.37 82.55 58.47 123.56 88.64 95.25 69.85 190.24 139.96 284.96 210.08 34.4 25.4 67.47 53.18 103.19 76.46 85.99 56.62 173.04 111.65 260.09 166.69 58.74 37.31 118 73.82 177.01 110.6 66.15 41.01 132.29 82.29 198.44 123.03 55.3 34.13 110.86 68.26 166.42 102.39 52.12 32.01 103.72 64.82 156.1 96.57 49.74 30.16 99.48 60.59 146.58 95.51 34.4 25.4 69.85 49.21 107.42 69.32 16.67 8.73 33.87 11.11 52.12 9.53 10.32-.79 15.08-6.61 11.64-14.02-11.11-24.08-23.81-47.36-44.19-63.76-14.82-11.91-31.22-20.37-51.06-16.14-3.97.79-9-1.32-13.23-3.18-3.7-1.85-7.14-5.29-10.85-7.67l-146.05-90.49c-64.56-39.95-129.38-79.64-193.68-119.59-88.64-54.77-177.27-110.07-265.91-165.1-58.21-36.25-116.42-72.5-174.36-109.01-60.33-37.57-120.39-75.41-180.18-113.51-29.9-18.79-59.8-37.57-88.64-58.21-59.27-42.86-118-87.05-176.74-130.7-10.05-7.67-20.11-15.08-31.49-23.55 3.18-1.85 4.5-3.7 6.09-3.7 6.35-.53 12.44-.79 18.79 0 7.67.53 12.7-2.65 16.4-9.79 5.03-9.79 10.58-19.31 16.4-28.84 51.06-87.31 106.89-171.19 162.98-254.79 1.85-2.91 3.7-6.61 6.35-8.2 2.91-1.85 7.67-3.18 10.32-1.59 2.91 1.32 4.76 6.09 5.56 9.53.53 2.65-1.06 5.82-1.85 8.73-4.76 14.55-9.53 28.84-14.29 43.39-5.29 16.14-1.32 30.16 11.91 36.78 7.14 3.7 15.61 6.35 23.55 6.88 21.17 1.06 42.6 2.12 62.97-5.56 14.55-5.29 28.84-11.38 43.13-17.2 4.76-1.85 9-5.82 14.55-3.97-2.38 12.17-5.29 23.55-6.35 34.93-1.06 14.82 6.35 25.66 19.58 30.16 8.73 2.91 17.99 4.5 26.99 5.03 16.4.79 32.81 1.32 49.21 0a392.2 392.2 0 0 0 55.56-8.73c26.46-6.35 51.06-17.99 75.14-31.49 4.76-2.65 10.05-4.23 18.26-7.94-2.91 10.58-4.23 17.46-6.61 24.08-9.26 29.1-11.91 58.74-9.79 89.16.79 11.38 5.82 19.84 14.55 24.87 7.14 3.97 15.08 6.88 23.02 7.94 23.55 2.65 46.04-1.85 68.53-9.26 40.48-13.49 75.94-37.31 109.8-63.76 48.68-38.1 90.75-83.87 132.29-130.44 4.23-4.76 8.47-10.05 11.11-15.88 4.76-9.79 1.06-20.11-8.47-21.96-16.4-3.44-32.81-3.44-46.3 9.79-34.66 33.34-68.53 67.47-104.25 99.75-31.22 28.31-63.76 54.5-96.31 80.96-8.73 6.88-19.31 11.64-29.63 15.61-8.73 3.44-11.64.79-15.61-8.2-3.18-7.67-3.97-15.35-2.38-23.81 6.61-36.25 18.52-70.64 31.49-104.78 5.82-15.61 13.76-30.16 20.11-45.77 6.88-17.2 12.17-35.45 19.84-52.12 28.84-61.91 57.41-123.56 87.58-184.68 42.86-86.78 86.52-173.04 131.5-258.76 40.75-78.05 83.87-155.05 125.94-232.57 25.93-47.89 51.59-95.78 77.26-143.4 8.2-15.08 15.35-30.96 24.87-44.98 13.23-19.31 28.31-37.31 42.33-56.36 31.49-42.86 60.59-87.05 84.4-135.2 4.5-9 9-18.26 11.64-28.05 3.7-12.7-4.23-23.81-16.67-24.08l-3.66-.02c-9.79 0-19.58.53-29.37 1.59l-.53.26zm0 0z"/></clipPath><clipPath id="id4" style="clip-rule:nonzero"><path d="M4662.73 2368.7c0-21.17 3.44-41.8 6.09-66.68 5.82 4.76 8.47 6.61 10.85 9 6.88 7.67 12.96 16.14 20.11 23.55 4.76 5.29 6.09 10.32 2.38 16.4-6.88 10.58-15.61 19.31-26.72 24.61-1.85.79-3.7 1.32-5.29 1.32-4.23 0-7.14-2.91-7.14-8.2h-.28zm74.62-105.57c6.09 9 7.14 15.35.26 21.96-6.88-6.61-5.56-12.96-.26-21.96zm8.99-27.25c5.82 6.09 5.03 11.91.53 20.11-7.67-10.58-7.67-11.11-.53-20.11zm216.7 46.3c18.26-35.45 43.39-63.5 78.58-80.43 8.47-3.97 16.93-3.97 25.14 1.06 5.29 3.18 6.35 7.67 2.65 12.7-2.65 3.44-5.82 6.88-9.26 9.53-28.58 22.49-57.41 44.71-86.52 66.94-2.91 2.12-6.61 2.91-12.96 5.82 1.06-7.41.79-11.91 2.65-15.35l-.28-.27zm210.87-163.77c-12.44 11.11-25.93 21.43-37.04 34.13-11.11 12.44-23.02 15.08-37.84 11.64-11.11-2.65-23.02-4.23-34.4-4.23-24.08 0-46.83 7.41-68 19.31-33.34 18.79-65.62 39.42-87.05 74.08-2.65 4.23-6.61 7.67-10.32 10.58-25.93 19.58-53.45 36.51-83.34 48.95-8.73 3.7-17.73 6.61-29.9 11.11 1.06-8.2 1.06-12.17 1.85-15.88 3.97-15.88 6.61-32.28 12.17-47.1 8.73-23.55 1.06-43.13-10.05-62.18-7.94-13.49-20.11-20.11-35.72-18.79-25.4 2.12-49.48 7.94-68.79 27.25-10.05 10.32-21.17 19.31-30.96 29.9-33.87 37.31-48.15 82.81-46.04 134.14 1.06 21.43 15.61 35.45 35.98 35.72l45 .03c3.7 0 8.2 0 11.38-1.85 20.9-10.85 42.07-21.17 53.71-44.19 2.91-5.56 6.61-7.94 12.7-8.2 41.28 0 80.17-11.91 116.95-31.22 5.82-3.18 9.79-2.65 13.76 2.65 5.82 8.2 14.82 12.44 24.08 12.7 19.05.26 38.89 1.32 57.68-2.12 34.4-6.35 61.65-27.78 86.52-52.65 3.97-3.97 7.41-8.2 11.64-11.64 2.12-1.59 5.82-1.32 8.47-1.85.53 2.65 1.32 3.7 1.06 4.5-.79 2.91-1.85 5.82-2.91 8.47-7.94 20.64-12.96 41.54-10.85 64.03 1.85 20.37 7.14 28.58 25.93 33.34 20.9 5.03 42.33 3.44 63.24-.26 28.31-5.03 54.5-16.67 80.16-29.63 41.8-21.17 80.96-47.63 119.59-74.88 4.5-3.18 9-6.35 12.44-10.32 6.61-7.67 3.7-16.93-5.82-19.31-4.23-1.06-8.73-1.32-12.7-3.18-6.88-3.18-12.96-2.12-19.31 1.59-4.23 2.65-8.47 4.76-12.7 7.41-55.52 33.19-113.29 64.34-171.57 92.22-4.23 1.85-8.73 2.65-14.29 4.23-.53-5.56-1.59-9-1.06-12.44 2.38-11.38 5.03-22.75 8.47-33.87 12.17-39.42 29.9-76.2 47.63-112.98 8.47-17.2 17.2-34.4 25.4-51.59 5.82-11.91 2.65-22.49-7.94-24.34-4.76-.79-9.53-1.59-14.29-1.59-8.2 0-15.88 1.85-23.02 8.2l.1.11z"/></clipPath><clipPath id="id5" style="clip-rule:nonzero"><path d="M4662.73 2368.7c0-21.17 3.44-41.8 6.09-66.68 5.82 4.76 8.47 6.61 10.85 9 6.88 7.67 12.96 16.14 20.11 23.55 4.76 5.29 6.09 10.32 2.38 16.4-6.88 10.58-15.61 19.31-26.72 24.61-1.85.79-3.7 1.32-5.29 1.32-4.23 0-7.14-2.91-7.14-8.2h-.28zm74.62-105.57c6.09 9 7.14 15.35.26 21.96-6.88-6.61-5.56-12.96-.26-21.96zm8.99-27.25c5.82 6.09 5.03 11.91.53 20.11-7.67-10.58-7.67-11.11-.53-20.11zm216.7 46.3c18.26-35.45 43.39-63.5 78.58-80.43 8.47-3.97 16.93-3.97 25.14 1.06 5.29 3.18 6.35 7.67 2.65 12.7-2.65 3.44-5.82 6.88-9.26 9.53-28.58 22.49-57.41 44.71-86.52 66.94-2.91 2.12-6.61 2.91-12.96 5.82 1.06-7.41.79-11.91 2.65-15.35l-.28-.27zm210.87-163.77c-12.44 11.11-25.93 21.43-37.04 34.13-11.11 12.44-23.02 15.08-37.84 11.64-11.11-2.65-23.02-4.23-34.4-4.23-24.08 0-46.83 7.41-68 19.31-33.34 18.79-65.62 39.42-87.05 74.08-2.65 4.23-6.61 7.67-10.32 10.58-25.93 19.58-53.45 36.51-83.34 48.95-8.73 3.7-17.73 6.61-29.9 11.11 1.06-8.2 1.06-12.17 1.85-15.88 3.97-15.88 6.61-32.28 12.17-47.1 8.73-23.55 1.06-43.13-10.05-62.18-7.94-13.49-20.11-20.11-35.72-18.79-25.4 2.12-49.48 7.94-68.79 27.25-10.05 10.32-21.17 19.31-30.96 29.9-33.87 37.31-48.15 82.81-46.04 134.14 1.06 21.43 15.61 35.45 35.98 35.72l45 .03c3.7 0 8.2 0 11.38-1.85 20.9-10.85 42.07-21.17 53.71-44.19 2.91-5.56 6.61-7.94 12.7-8.2 41.28 0 80.17-11.91 116.95-31.22 5.82-3.18 9.79-2.65 13.76 2.65 5.82 8.2 14.82 12.44 24.08 12.7 19.05.26 38.89 1.32 57.68-2.12 34.4-6.35 61.65-27.78 86.52-52.65 3.97-3.97 7.41-8.2 11.64-11.64 2.12-1.59 5.82-1.32 8.47-1.85.53 2.65 1.32 3.7 1.06 4.5-.79 2.91-1.85 5.82-2.91 8.47-7.94 20.64-12.96 41.54-10.85 64.03 1.85 20.37 7.14 28.58 25.93 33.34 20.9 5.03 42.33 3.44 63.24-.26 28.31-5.03 54.5-16.67 80.16-29.63 41.8-21.17 80.96-47.63 119.59-74.88 4.5-3.18 9-6.35 12.44-10.32 6.61-7.67 3.7-16.93-5.82-19.31-4.23-1.06-8.73-1.32-12.7-3.18-6.88-3.18-12.96-2.12-19.31 1.59-4.23 2.65-8.47 4.76-12.7 7.41-55.52 33.19-113.29 64.34-171.57 92.22-4.23 1.85-8.73 2.65-14.29 4.23-.53-5.56-1.59-9-1.06-12.44 2.38-11.38 5.03-22.75 8.47-33.87 12.17-39.42 29.9-76.2 47.63-112.98 8.47-17.2 17.2-34.4 25.4-51.59 5.82-11.91 2.65-22.49-7.94-24.34-4.76-.79-9.53-1.59-14.29-1.59-8.2 0-15.88 1.85-23.02 8.2l.1.11z"/></clipPath><clipPath id="id6" style="clip-rule:nonzero"><path d="M6432.52 1875.78c-8.2 3.97-16.93 7.14-25.4 11.11-9.53 4.76-19.05 9.79-28.05 15.35-3.18 1.85-6.35 7.67-5.82 10.58.53 3.44 5.56 6.35 9.26 8.2 2.91 1.32 6.61 1.06 10.05.53 19.05-2.12 38.36-3.97 57.15-6.88 10.58-1.59 20.64-4.5 30.96-7.41 4.76-1.06 8.73-3.44 10.05-9.53 4.76-22.75 0-29.63-21.7-29.63l-3.69.01c-1.59-.26-3.44-.53-5.03-.53-8.73 0-18.26 3.44-27.52 7.94l-.26.26zm0 0z"/></clipPath><clipPath id="id7" style="clip-rule:nonzero"><path d="M6432.52 1875.78c-8.2 3.97-16.93 7.14-25.4 11.11-9.53 4.76-19.05 9.79-28.05 15.35-3.18 1.85-6.35 7.67-5.82 10.58.53 3.44 5.56 6.35 9.26 8.2 2.91 1.32 6.61 1.06 10.05.53 19.05-2.12 38.36-3.97 57.15-6.88 10.58-1.59 20.64-4.5 30.96-7.41 4.76-1.06 8.73-3.44 10.05-9.53 4.76-22.75 0-29.63-21.7-29.63l-3.69.01c-1.59-.26-3.44-.53-5.03-.53-8.73 0-18.26 3.44-27.52 7.94l-.26.26zm0 0z"/></clipPath><clipPath id="id8" style="clip-rule:nonzero"><path d="M1334.8 709.23h114.57V18.41H1334.8v690.83-.01zM4119.28 18.14V527.2h-1.85L3818.98 18.14h-120.65v691.09h109.01v-508h2.91l297.39 508h120.91V18.14h-109.27zm1187.18 119.07h2.64l97.9 297.13-199.49-.01 98.94-297.13.01.01zm-58.74-119.07L4996.9 709.23h118.01l61.38-182.83 260.87.01 61.38 182.83 122.77-.01-251.62-691.09h-121.97zm998.8 0v104.51h206.9v586.32h114.57V122.65h207.7V18.14h-529.17zm1729.05 0v402.7c0 23.28-1.06 46.83-3.18 70.64-2.12 23.81-8.2 45.51-18.26 64.29-10.05 19.05-25.4 34.66-45.77 47.1-20.37 12.17-49.48 18.26-86.52 18.26s-66.15-6.09-86.52-18.26c-20.64-12.17-35.72-28.05-45.77-47.1-10.05-19.05-16.14-40.48-18.26-64.29-2.12-23.81-3.18-47.36-3.18-70.64l.02-402.7h-114.57v442.38c0 44.45 6.35 83.08 19.31 116.15 12.7 32.81 30.96 60.59 54.5 82.55 23.55 22.23 51.59 38.89 84.67 49.74 33.07 10.85 69.59 16.4 109.8 16.4 40.22 0 76.99-5.56 109.8-16.4 33.07-10.85 61.12-27.52 84.67-49.74 23.55-22.23 41.54-49.74 54.5-82.55 12.7-32.81 19.05-71.7 19.05-116.15l.01-442.38h-114.3zm1069.98 98.69h185.73c14.55 0 28.84 1.32 42.6 3.97 13.76 2.65 25.93 7.67 36.51 15.35 10.58 7.94 19.05 18.52 25.14 32.54 6.09 13.76 9 31.75 9 53.71 0 36.78-9.53 64.29-28.31 82.81-18.79 18.26-46.57 27.52-83.34 27.52h-187.6v-215.9h.27zm-114.57-98.69v691.09h114.3V424.81h168.54c26.19 0 47.63 3.44 64.56 10.58 16.67 7.14 29.9 18.26 39.69 33.34 9.79 15.08 16.4 34.13 20.11 57.15 3.7 23.02 5.56 50.27 5.56 81.76 0 16.93.79 34.13 2.38 52.39 1.32 17.99 6.61 34.66 15.08 49.21l122.76-.01c-12.17-14.29-21.17-37.84-26.99-71.17-5.82-33.34-8.73-70.11-8.73-110.86 0-27.25-3.18-49.74-9.53-67.73-6.35-17.99-14.55-32.81-24.34-43.92-9.79-11.38-20.37-19.58-31.49-24.61-11.38-5.29-21.96-8.47-31.49-9.53v-2.12c5.56-1.85 14.29-5.82 25.93-11.64 11.91-5.82 24.08-15.35 36.25-28.58 12.17-13.23 22.75-30.69 32.01-52.39 9-21.7 13.76-48.95 13.76-81.76 0-58.74-17.99-104.51-53.98-137.32-35.98-32.81-89.96-49.48-161.93-49.48l-312.45.02zm1353.88 0v691.09h477.04V604.72h-362.48V402.58h329.67v-98.69h-329.67V122.92h356.13V18.41h-470.43l-.26-.26v-.01zM256.36 1.74c-29.37 0-58.21 3.97-87.05 12.17-28.84 8.2-54.24 20.64-76.99 37.31-22.49 16.93-40.75 37.84-54.5 63.5-13.76 25.4-20.64 55.56-20.64 90.49 0 18.26 2.38 35.98 6.88 53.45 4.5 17.46 12.44 33.87 23.28 49.21 11.11 15.61 25.66 29.37 44.45 42.07 18.52 12.44 41.8 22.75 69.85 30.43 45.24 12.96 83.08 23.28 114.04 31.49 30.69 8.2 57.68 16.67 80.96 25.66 13.49 5.29 25.93 14.02 37.04 26.72 11.38 12.7 16.93 32.01 16.93 58.47 0 12.96-2.38 25.66-7.41 38.1-4.76 12.7-12.7 23.81-23.81 33.34-11.11 9.53-25.4 17.46-43.13 23.81-17.73 6.09-38.89 9-64.03 9-23.28 0-44.71-2.65-64.56-8.2a151.55 151.55 0 0 1-52.64-26.21 119.027 119.027 0 0 1-35.7-46.03c-8.47-18.79-12.96-41.28-12.96-67.73l-114.59-.01c.79 42.6 8.2 79.64 23.02 110.86 14.55 31.22 34.13 56.89 58.47 76.99 24.34 19.84 53.18 34.93 85.99 44.45 33.07 9.79 68 14.55 105.3 14.55 32.28 0 64.03-3.97 95.25-12.17 31.22-7.94 59-20.64 83.34-38.1 24.34-17.46 44.19-39.95 59-67.2 14.81-27.25 22.49-60.59 22.49-99.22 0-17.99-2.65-35.98-7.94-54.24-5.29-17.99-13.23-34.93-23.81-50.8-10.58-15.88-24.08-29.9-39.69-42.07-15.88-12.17-34.4-21.96-55.83-29.1-8.47-2.65-22.75-6.61-42.6-12.17-19.84-5.56-40.22-11.11-60.85-16.93-20.9-5.82-39.42-11.11-56.36-16.14-16.67-4.76-26.46-7.67-28.84-8.2-23.28-7.14-42.07-17.73-56.36-31.49-14.29-13.76-21.43-33.07-21.43-57.68 0-17.46 3.7-32.01 11.38-43.39 7.67-11.64 17.2-20.9 28.84-27.78 11.64-6.88 24.34-11.64 38.36-14.55s27.78-4.23 41.28-4.23c39.69 0 72.23 9.26 97.9 27.52 25.66 18.52 39.95 49.74 43.13 94.46l114.31-.01c0-35.98-6.61-68-20.11-95.25a203.252 203.252 0 0 0-54.48-69.32 231.94 231.94 0 0 0-79.65-42.07C321.72 6.24 289.44 1.47 255.3 1.47l1.06.26v.01zm2324.9 0c-48.95 0-92.6 9.53-131.5 29.1-38.63 19.31-71.44 45.51-98.43 78.32-26.99 32.81-47.36 71.44-61.91 115.09-14.29 43.92-21.43 90.49-21.43 139.44s7.14 96.31 21.43 140.23c14.29 43.92 34.93 82.29 61.91 115.09 26.69 32.79 60.37 59.37 98.43 77.78 38.89 19.05 82.55 28.58 131.5 28.58 39.69 0 74.88-7.14 105.3-21.17 30.43-14.29 61.12-39.69 91.55-76.46l17.46 81.23h73.29v-363.8h-278.34v91.81h173.83c-.53 29.1-4.76 55.56-12.96 79.38-7.94 23.81-19.58 43.92-35.19 60.33-15.61 16.4-34.66 29.1-57.15 37.84-22.75 8.73-48.68 12.7-77.79 12.17-34.93 0-64.82-7.41-90.22-22.23a182.767 182.767 0 0 1-61.9-59.53c-15.88-24.87-27.52-52.92-35.19-84.67-7.54-31.35-11.39-63.56-11.39-95.82v-1.05c0-32.81 3.7-65.09 11.38-96.84 7.67-31.49 19.31-59.8 35.19-84.67 15.88-24.87 36.51-44.71 61.91-59.53s55.3-22.23 90.22-22.23c20.64 0 40.48 2.91 59.53 8.73 19.05 5.82 35.98 14.55 51.33 26.19 15.35 11.64 28.05 25.93 38.1 43.13 10.05 17.2 16.67 36.78 19.58 59.53l111.65.04c-4.23-38.63-14.55-72.76-31.22-102.66-15.59-28.56-36.79-53.76-62.18-74.09-25.14-19.58-53.45-34.4-85.46-44.45-32.01-10.05-65.88-15.08-101.07-15.08l-.26.26v.01z"/></clipPath><clipPath id="id9" style="clip-rule:nonzero"><path d="M1334.8 709.23h114.57V18.41H1334.8v690.83-.01zM4119.28 18.14V527.2h-1.85L3818.98 18.14h-120.65v691.09h109.01v-508h2.91l297.39 508h120.91V18.14h-109.27zm1187.18 119.07h2.64l97.9 297.13-199.49-.01 98.94-297.13.01.01zm-58.74-119.07L4996.9 709.23h118.01l61.38-182.83 260.87.01 61.38 182.83 122.77-.01-251.62-691.09h-121.97zm998.8 0v104.51h206.9v586.32h114.57V122.65h207.7V18.14h-529.17zm1729.05 0v402.7c0 23.28-1.06 46.83-3.18 70.64-2.12 23.81-8.2 45.51-18.26 64.29-10.05 19.05-25.4 34.66-45.77 47.1-20.37 12.17-49.48 18.26-86.52 18.26s-66.15-6.09-86.52-18.26c-20.64-12.17-35.72-28.05-45.77-47.1-10.05-19.05-16.14-40.48-18.26-64.29-2.12-23.81-3.18-47.36-3.18-70.64l.02-402.7h-114.57v442.38c0 44.45 6.35 83.08 19.31 116.15 12.7 32.81 30.96 60.59 54.5 82.55 23.55 22.23 51.59 38.89 84.67 49.74 33.07 10.85 69.59 16.4 109.8 16.4 40.22 0 76.99-5.56 109.8-16.4 33.07-10.85 61.12-27.52 84.67-49.74 23.55-22.23 41.54-49.74 54.5-82.55 12.7-32.81 19.05-71.7 19.05-116.15l.01-442.38h-114.3zm1069.98 98.69h185.73c14.55 0 28.84 1.32 42.6 3.97 13.76 2.65 25.93 7.67 36.51 15.35 10.58 7.94 19.05 18.52 25.14 32.54 6.09 13.76 9 31.75 9 53.71 0 36.78-9.53 64.29-28.31 82.81-18.79 18.26-46.57 27.52-83.34 27.52h-187.6v-215.9h.27zm-114.57-98.69v691.09h114.3V424.81h168.54c26.19 0 47.63 3.44 64.56 10.58 16.67 7.14 29.9 18.26 39.69 33.34 9.79 15.08 16.4 34.13 20.11 57.15 3.7 23.02 5.56 50.27 5.56 81.76 0 16.93.79 34.13 2.38 52.39 1.32 17.99 6.61 34.66 15.08 49.21l122.76-.01c-12.17-14.29-21.17-37.84-26.99-71.17-5.82-33.34-8.73-70.11-8.73-110.86 0-27.25-3.18-49.74-9.53-67.73-6.35-17.99-14.55-32.81-24.34-43.92-9.79-11.38-20.37-19.58-31.49-24.61-11.38-5.29-21.96-8.47-31.49-9.53v-2.12c5.56-1.85 14.29-5.82 25.93-11.64 11.91-5.82 24.08-15.35 36.25-28.58 12.17-13.23 22.75-30.69 32.01-52.39 9-21.7 13.76-48.95 13.76-81.76 0-58.74-17.99-104.51-53.98-137.32-35.98-32.81-89.96-49.48-161.93-49.48l-312.45.02zm1353.88 0v691.09h477.04V604.72h-362.48V402.58h329.67v-98.69h-329.67V122.92h356.13V18.41h-470.43l-.26-.26v-.01zM256.36 1.74c-29.37 0-58.21 3.97-87.05 12.17-28.84 8.2-54.24 20.64-76.99 37.31-22.49 16.93-40.75 37.84-54.5 63.5-13.76 25.4-20.64 55.56-20.64 90.49 0 18.26 2.38 35.98 6.88 53.45 4.5 17.46 12.44 33.87 23.28 49.21 11.11 15.61 25.66 29.37 44.45 42.07 18.52 12.44 41.8 22.75 69.85 30.43 45.24 12.96 83.08 23.28 114.04 31.49 30.69 8.2 57.68 16.67 80.96 25.66 13.49 5.29 25.93 14.02 37.04 26.72 11.38 12.7 16.93 32.01 16.93 58.47 0 12.96-2.38 25.66-7.41 38.1-4.76 12.7-12.7 23.81-23.81 33.34-11.11 9.53-25.4 17.46-43.13 23.81-17.73 6.09-38.89 9-64.03 9-23.28 0-44.71-2.65-64.56-8.2a151.55 151.55 0 0 1-52.64-26.21 119.027 119.027 0 0 1-35.7-46.03c-8.47-18.79-12.96-41.28-12.96-67.73l-114.59-.01c.79 42.6 8.2 79.64 23.02 110.86 14.55 31.22 34.13 56.89 58.47 76.99 24.34 19.84 53.18 34.93 85.99 44.45 33.07 9.79 68 14.55 105.3 14.55 32.28 0 64.03-3.97 95.25-12.17 31.22-7.94 59-20.64 83.34-38.1 24.34-17.46 44.19-39.95 59-67.2 14.81-27.25 22.49-60.59 22.49-99.22 0-17.99-2.65-35.98-7.94-54.24-5.29-17.99-13.23-34.93-23.81-50.8-10.58-15.88-24.08-29.9-39.69-42.07-15.88-12.17-34.4-21.96-55.83-29.1-8.47-2.65-22.75-6.61-42.6-12.17-19.84-5.56-40.22-11.11-60.85-16.93-20.9-5.82-39.42-11.11-56.36-16.14-16.67-4.76-26.46-7.67-28.84-8.2-23.28-7.14-42.07-17.73-56.36-31.49-14.29-13.76-21.43-33.07-21.43-57.68 0-17.46 3.7-32.01 11.38-43.39 7.67-11.64 17.2-20.9 28.84-27.78 11.64-6.88 24.34-11.64 38.36-14.55s27.78-4.23 41.28-4.23c39.69 0 72.23 9.26 97.9 27.52 25.66 18.52 39.95 49.74 43.13 94.46l114.31-.01c0-35.98-6.61-68-20.11-95.25a203.252 203.252 0 0 0-54.48-69.32 231.94 231.94 0 0 0-79.65-42.07C321.72 6.24 289.44 1.47 255.3 1.47l1.06.26v.01zm2324.9 0c-48.95 0-92.6 9.53-131.5 29.1-38.63 19.31-71.44 45.51-98.43 78.32-26.99 32.81-47.36 71.44-61.91 115.09-14.29 43.92-21.43 90.49-21.43 139.44s7.14 96.31 21.43 140.23c14.29 43.92 34.93 82.29 61.91 115.09 26.69 32.79 60.37 59.37 98.43 77.78 38.89 19.05 82.55 28.58 131.5 28.58 39.69 0 74.88-7.14 105.3-21.17 30.43-14.29 61.12-39.69 91.55-76.46l17.46 81.23h73.29v-363.8h-278.34v91.81h173.83c-.53 29.1-4.76 55.56-12.96 79.38-7.94 23.81-19.58 43.92-35.19 60.33-15.61 16.4-34.66 29.1-57.15 37.84-22.75 8.73-48.68 12.7-77.79 12.17-34.93 0-64.82-7.41-90.22-22.23a182.767 182.767 0 0 1-61.9-59.53c-15.88-24.87-27.52-52.92-35.19-84.67-7.54-31.35-11.39-63.56-11.39-95.82v-1.05c0-32.81 3.7-65.09 11.38-96.84 7.67-31.49 19.31-59.8 35.19-84.67 15.88-24.87 36.51-44.71 61.91-59.53s55.3-22.23 90.22-22.23c20.64 0 40.48 2.91 59.53 8.73 19.05 5.82 35.98 14.55 51.33 26.19 15.35 11.64 28.05 25.93 38.1 43.13 10.05 17.2 16.67 36.78 19.58 59.53l111.65.04c-4.23-38.63-14.55-72.76-31.22-102.66-15.59-28.56-36.79-53.76-62.18-74.09-25.14-19.58-53.45-34.4-85.46-44.45-32.01-10.05-65.88-15.08-101.07-15.08l-.26.26v.01z"/></clipPath><linearGradient id="id10" gradientUnits="userSpaceOnUse" x1="600.33" y1="-1321.44" x2="15099.47" y2="3890.84"><stop offset="0" style="stop-opacity:1;stop-color:#c4982f"/><stop offset=".161" style="stop-opacity:1;stop-color:#c29730"/><stop offset=".451" style="stop-opacity:1;stop-color:#f9f293"/><stop offset=".769" style="stop-opacity:1;stop-color:#805020"/><stop offset="1" style="stop-opacity:1;stop-color:#644a17"/></linearGradient><linearGradient id="id11" gradientUnits="userSpaceOnUse" xlink:href="#id10" x1="547.41" y1="-51.44" x2="13750.1" y2="4658.14"/><linearGradient id="id12" gradientUnits="userSpaceOnUse" xlink:href="#id10" x1="3325.53" y1="1641.9" x2="6950.31" y2="2964.8"/><linearGradient id="id13" gradientUnits="userSpaceOnUse" xlink:href="#id10" x1="124.08" y1="1139.19" x2="13300.31" y2="5901.67"/><linearGradient id="id14" gradientUnits="userSpaceOnUse" xlink:href="#id10" x1="494.49" y1="133.77" x2="13670.72" y2="4869.8"/><style>.fil0,.fil2{fill:none;fill-rule:nonzero}.fil0{fill:#fff;fill-opacity:0}</style></defs><g id="Слой_x0020_1"><g id="_2200917041568"><path class="fil0" d="M3063.83 1197.62h1818.45v2407.73H3063.83z" style="clip-path:url(#id0)"/><g style="clip-path:url(#id1)"><path id="_1" style="fill:url(#id13);fill-rule:nonzero" d="m3272.56 618.06-976.18 2711.48 2378.13 856.17 976.17-2711.45-2378.12-856.19z"/></g><path class="fil2" d="M4633.89 1230.99c-65.62 25.4-126.74 59.8-186.27 97.9-63.76 40.75-124.35 86.25-183.89 133.35-76.99 60.85-150.55 126.21-220.93 195.53-32.28 31.75-64.56 62.97-96.57 94.72-43.92 43.66-88.11 87.31-131.76 131.23-33.6 33.87-66.94 68-99.75 102.66-105.83 111.92-211.93 223.57-316.71 336.55-78.58 84.67-155.31 170.66-232.83 256.38-5.29 5.82-10.58 11.91-16.4 17.2-2.12 2.12-5.29 2.91-9.53 5.03 0-5.29-.26-8.2.53-10.85 8.73-23.81 15.88-48.15 26.72-70.91 21.7-45.51 45.51-89.96 68.26-134.94 16.67-32.28 32.81-64.56 49.74-96.84 12.17-23.28 23.81-46.83 37.57-69.06 29.9-49.48 61.12-97.9 91.28-147.11 41.8-68 83.61-136 124.88-204.52 38.89-65.09 76.73-130.97 115.09-196.59 3.97-6.88 7.41-14.29 10.32-21.96 2.38-5.56 1.32-10.32-5.03-11.38-22.23-4.5-43.92-6.09-64.56 6.88-22.49 14.02-39.95 33.6-56.62 54.24-.79.79-.53 2.91-.79 4.76 1.85 1.59 3.44 3.44 5.29 5.03 11.38 9.26 12.17 11.64 6.09 25.14-2.91 6.35-6.88 12.17-10.58 17.99-5.03 7.67-10.32 14.82-15.08 22.49-28.05 44.71-56.09 89.43-83.61 134.14-36.78 59.53-73.55 118.8-109.54 178.59-29.1 48.15-56.89 97.1-85.2 145.79-40.22 69.59-78.85 140.23-114.04 212.99-23.28 48.15-45.77 96.57-59 149.23-.79 3.18-4.76 5.56-7.14 8.2v46.04c2.38.79 4.76 1.59 6.61 2.91 22.75 17.2 48.42 19.31 74.61 13.23 24.08-5.56 42.33-21.96 59-39.95 47.36-51.06 94.19-102.66 141.02-153.99 34.66-37.84 69.06-75.67 103.45-113.77 53.98-59.8 106.63-120.91 161.93-179.65 103.98-111.13 207.7-222.25 315.91-328.88 47.36-46.83 93.93-93.93 142.61-139.17 65.62-60.85 132.03-120.91 199.5-179.92 81.23-70.91 165.63-137.32 255.85-195.26 56.89-36.78 115.36-70.91 179.65-91.02 23.81-7.41 48.68-12.44 73.55-15.61 20.37-2.65 32.28 9 33.07 30.96.79 19.31.53 38.89-1.59 57.94-5.56 49.48-20.64 96.31-36.78 142.88-21.17 61.38-46.3 120.91-72.5 180.18-39.95 89.69-82.81 177.54-127.26 264.58-27.78 54.24-56.09 108.21-85.2 161.66-44.98 82.81-90.49 165.1-136 247.39-29.9 54.24-60.33 107.95-90.49 162.19-27.78 50.01-55.56 100.28-83.08 150.81-35.72 65.88-71.17 132.03-106.36 198.17-17.99 33.87-35.19 68-52.92 101.86-17.2 33.07-34.4 66.15-51.06 99.48-16.93 33.87-33.6 67.73-49.74 102.13-29.1 62.18-58.47 124.09-86.25 186.8-21.17 47.89-40.22 97.1-55.03 147.9-8.2 28.31-15.61 56.62-14.82 87.05.53 22.23 10.58 36.51 28.58 45.51 14.55 7.14 30.43 10.05 46.3 10.05 9.53 0 19.31-.53 28.84-2.38 3.18-.53 7.14-5.29 8.2-9 .53-2.38-2.91-7.41-5.56-9.26-6.54-4.99-13.76-9.17-21.37-12.43-11.64-4.76-15.35-12.7-15.61-25.93-.79-41.28 9.79-79.9 24.08-117.48 19.05-50.01 39.69-99.48 60.85-148.7 38.1-88.9 82.02-174.36 125.94-260.09 19.58-38.1 38.89-76.2 58.74-114.3 14.82-28.58 29.63-57.41 45.24-85.46 20.11-35.98 41.01-71.44 61.38-107.42 53.18-94.72 106.36-189.44 159.28-284.43 28.05-50.54 55.83-101.34 83.34-152.14 31.75-59 62.97-118 94.19-177.54 27.52-52.12 54.77-104.25 81.49-156.9 22.75-44.98 45.24-89.96 67.2-135.47 38.36-79.38 75.14-159.81 108.74-241.83 29.37-71.7 57.41-143.93 73.82-220.13 6.35-29.37 9.79-59.27 4.5-89.69-3.7-21.17-14.55-36.51-32.28-46.3-15.35-8.47-32.28-10.85-49.21-10.85l-3.43.04c-55.03 0-107.69 13.23-159.01 33.07m-1.86.26z"/><path class="fil0" d="M5344 1119.87h2347.43v2353.68H5344z" style="clip-path:url(#id2)"/><g style="clip-path:url(#id3)"><path id="_1_0" style="fill:url(#id14);fill-rule:nonzero" d="M5612.87 371.15 4592.51 3205.31l2830.95 1019.2 1020.37-2834.19-2830.96-1019.2z"/></g><path class="fil2" d="M5682.69 2284.03c-1.85-2.12-2.38-8.2-.79-11.11 6.88-13.76 14.55-27.52 22.75-40.48 2.12-3.44 8.73-6.61 12.17-5.56 21.17 6.09 42.33 13.23 63.24 20.64 1.85.53 3.18 3.18 6.61 6.35-5.03 2.91-9 6.09-12.96 7.41-26.72 8.2-53.71 16.14-80.7 23.55-1.75.52-3.57.79-5.4.79h-.15c-2.12 0-3.97-.53-5.03-1.59m1167.6-54.5c3.18-9 9.79-12.44 19.84-15.08-4.76 10.58-10.58 15.08-19.58 15.08h-.26zm-333.37-80.43c2.65-2.65 4.76-5.82 7.67-7.41 1.06-.53 3.7 3.18 7.14 6.09-3.18 3.18-5.56 6.61-7.67 6.61-2.38 0-4.76-3.44-7.14-5.29zm1065.21-1027.38c-12.44 1.59-21.43 7.67-28.31 20.11-41.01 74.88-83.34 149.49-124.62 224.37-42.33 76.73-84.4 153.46-126.21 230.45-32.81 60.59-64.82 121.71-97.1 182.56-26.46 50.27-53.45 100.54-79.11 151.34-28.58 56.62-56.62 113.77-83.87 171.19-25.4 53.71-49.74 108.21-73.82 162.72-4.23 9.53-8.47 17.73-17.2 23.28-35.19 23.28-71.17 45.24-109.8 61.65-24.34 10.32-48.95 19.31-75.14 21.17-13.49.79-16.4-2.38-10.85-15.88 7.67-19.31 17.2-37.57 25.4-56.62 4.23-9.79 11.64-14.02 21.17-16.4 24.87-6.61 49.48-13.23 74.08-21.17 19.84-6.35 39.42-13.49 56.62-26.72 13.23-10.32 15.08-26.72 4.23-39.95-2.65-3.44-6.35-6.61-10.05-8.47-20.37-11.11-41.54-15.88-64.29-9-4.5 1.32-9.26 2.65-14.02 3.44-16.4 2.38-29.37 10.32-42.07 21.7-19.31 17.46-37.31 37.31-62.44 46.3-8.73 3.18-16.93 7.14-25.14 11.64-33.6 18.79-67.47 37.57-101.07 56.36-4.76 2.91-9.53 7.41-16.93 2.65 1.59-4.23 3.44-8.47 4.76-12.44 6.88-17.99 14.82-35.45 15.61-55.3.26-8.2-2.12-13.23-9.79-16.14-10.32-3.97-20.37-9.53-30.43-14.29-8.2-3.7-10.58-10.58-7.67-18.79 3.97-11.91 8.73-23.81 12.96-35.45 1.85-4.76 4.76-9.53 4.76-14.02-.79-18.52-6.61-34.93-23.02-44.71-28.58-17.2-73.03-12.17-97.9 10.85-8.2 7.67-13.23 16.14-11.64 28.05 1.59 10.58 2.91 21.17 5.82 31.22 4.5 15.08 11.91 28.84 26.99 37.31-7.41 10.85-13.49 20.64-20.11 29.9-1.32 1.85-3.44 3.44-5.56 4.5-14.29 8.47-28.58 17.2-43.13 24.87-51.59 27.78-103.19 55.56-154.78 83.08-3.44 1.85-7.14 2.12-11.64 3.7-3.7-12.96-3.97-24.34 1.32-35.98 17.73-37.04 35.19-73.82 52.12-111.13 5.56-11.91 9.79-24.34 14.02-36.78 3.7-11.64-1.85-25.4-12.96-28.58-16.67-4.5-33.6-4.76-48.42 6.61-2.38 1.85-4.76 7.94-3.7 10.05 5.82 11.91-.53 20.37-5.03 30.16-19.31 41.01-38.89 82.02-57.41 123.3-5.82 13.23-9 28.05-11.91 42.6-3.97 19.84 5.56 37.04 22.23 40.22 20.11 4.23 40.22 4.23 60.33-2.38 45.24-15.08 89.16-33.34 130.7-57.15 2.65-1.59 5.82-1.85 11.64-3.7-39.42 69.59-77.52 136.53-116.15 205.05-4.76-3.18-9.53-5.56-13.49-8.73-21.7-16.14-43.39-32.54-65.35-48.15-94.46-67.73-188.65-135.2-283.37-202.14-9.79-6.88-9-15.61-9-25.14 0-8.73 6.09-10.32 12.17-12.96 41.54-17.99 83.34-35.45 124.62-53.71 65.62-28.58 131.23-56.89 196.32-86.52 58.47-26.72 116.95-53.71 174.36-82.55a9587.945 9587.945 0 0 0 230.98-120.65c77.52-41.54 151.87-88.9 225.69-137.58 72.5-47.63 143.67-97.9 212.73-151.08 41.28-31.75 82.02-64.82 123.03-97.37 4.76-3.7 9.79-7.67 7.14-15.08-2.38-6.61-8.2-8.2-14.29-8.47-11.64 0-23.28-.79-34.66.26-5.82.53-12.17 3.44-16.93 7.14-62.18 46.57-123.3 94.72-186.53 140.23-67.73 48.95-136.26 97.1-206.11 142.08-58.47 37.57-119.59 70.91-179.65 105.3-79.38 45.51-160.34 87.58-242.62 126.74-63.24 30.16-126.47 60.59-190.5 89.16-61.12 27.52-123.3 52.92-184.94 79.11-5.03 2.12-10.58 3.44-18.26 5.82 2.38-6.61 3.18-10.58 4.76-14.02 28.84-58.21 58.21-116.15 87.05-174.63 41.8-84.4 83.61-169.07 125.15-253.74 18.79-38.63 37.31-76.99 55.56-115.89 40.75-86.25 81.49-172.51 121.71-259.03 9-19.05 16.67-39.16 23.81-59 5.82-15.88 0-24.87-15.88-26.19-7.67-.53-15.35-.79-23.28-.79-21.43.26-40.22 14.02-47.1 33.6 10.05 11.11 10.32 11.11 3.7 24.61-.26 1.06-.79 1.85-1.32 2.65-53.45 111.65-106.63 223.31-159.81 334.7-21.43 44.98-42.86 90.22-64.82 135.2-30.69 62.97-61.65 125.94-92.87 188.65-16.14 32.54-33.07 64.56-49.74 96.84-14.55 28.05-31.49 54.77-41.28 85.46-4.5 14.29-11.11 28.31-22.49 38.89-5.56 5.29-11.11 6.88-18.26 2.65-42.07-24.34-87.58-34.13-135.2-33.07-22.75.53-44.19 5.56-62.18 21.43-20.37 17.99-27.78 42.33-31.49 68.53-1.06 7.67 1.85 13.76 6.61 19.31 11.91 13.23 26.99 16.67 43.66 15.88 52.39-2.65 103.45-12.44 152.66-32.28 3.7-1.59 7.94-1.85 14.82-3.18-1.59 6.61-1.59 9.79-2.91 12.17-7.67 16.4-15.61 32.81-23.55 49.21-32.28 66.15-64.56 132.29-96.84 198.7-24.87 51.33-49.21 102.92-74.61 153.99-42.07 85.46-84.4 170.92-127 256.12-32.01 64.56-65.09 128.59-97.1 193.15-5.03 10.32-12.17 15.08-21.7 17.73-9.26 2.65-18.52 5.56-27.78 9-11.38 4.5-12.96 7.41-12.96 20.64v50.54c0 7.41 2.65 11.64 9.79 12.44 11.91 1.59 24.08 2.91 35.98 4.5 11.91 1.59 19.84-3.97 27.25-13.76 30.43-40.48 53.98-85.73 77.26-130.97 21.17-40.75 41.28-82.02 61.91-122.77 23.28-46.3 46.83-92.6 69.85-139.17 29.1-58.74 57.94-117.48 86.78-176.48 37.84-76.99 75.94-153.72 113.24-230.98 18.79-39.16 36.51-78.85 54.5-118.27 7.14-15.35 9.26-16.14 22.23-6.88 41.28 29.37 82.55 58.47 123.56 88.64 95.25 69.85 190.24 139.96 284.96 210.08 34.4 25.4 67.47 53.18 103.19 76.46 85.99 56.62 173.04 111.65 260.09 166.69 58.74 37.31 118 73.82 177.01 110.6 66.15 41.01 132.29 82.29 198.44 123.03 55.3 34.13 110.86 68.26 166.42 102.39 52.12 32.01 103.72 64.82 156.1 96.57 49.74 30.16 99.48 60.59 146.58 95.51 34.4 25.4 69.85 49.21 107.42 69.32 16.67 8.73 33.87 11.11 52.12 9.53 10.32-.79 15.08-6.61 11.64-14.02-11.11-24.08-23.81-47.36-44.19-63.76-14.82-11.91-31.22-20.37-51.06-16.14-3.97.79-9-1.32-13.23-3.18-3.7-1.85-7.14-5.29-10.85-7.67l-146.05-90.49c-64.56-39.95-129.38-79.64-193.68-119.59-88.64-54.77-177.27-110.07-265.91-165.1-58.21-36.25-116.42-72.5-174.36-109.01-60.33-37.57-120.39-75.41-180.18-113.51-29.9-18.79-59.8-37.57-88.64-58.21-59.27-42.86-118-87.05-176.74-130.7-10.05-7.67-20.11-15.08-31.49-23.55 3.18-1.85 4.5-3.7 6.09-3.7 6.35-.53 12.44-.79 18.79 0 7.67.53 12.7-2.65 16.4-9.79 5.03-9.79 10.58-19.31 16.4-28.84 51.06-87.31 106.89-171.19 162.98-254.79 1.85-2.91 3.7-6.61 6.35-8.2 2.91-1.85 7.67-3.18 10.32-1.59 2.91 1.32 4.76 6.09 5.56 9.53.53 2.65-1.06 5.82-1.85 8.73-4.76 14.55-9.53 28.84-14.29 43.39-5.29 16.14-1.32 30.16 11.91 36.78 7.14 3.7 15.61 6.35 23.55 6.88 21.17 1.06 42.6 2.12 62.97-5.56 14.55-5.29 28.84-11.38 43.13-17.2 4.76-1.85 9-5.82 14.55-3.97-2.38 12.17-5.29 23.55-6.35 34.93-1.06 14.82 6.35 25.66 19.58 30.16 8.73 2.91 17.99 4.5 26.99 5.03 16.4.79 32.81 1.32 49.21 0a392.2 392.2 0 0 0 55.56-8.73c26.46-6.35 51.06-17.99 75.14-31.49 4.76-2.65 10.05-4.23 18.26-7.94-2.91 10.58-4.23 17.46-6.61 24.08-9.26 29.1-11.91 58.74-9.79 89.16.79 11.38 5.82 19.84 14.55 24.87 7.14 3.97 15.08 6.88 23.02 7.94 23.55 2.65 46.04-1.85 68.53-9.26 40.48-13.49 75.94-37.31 109.8-63.76 48.68-38.1 90.75-83.87 132.29-130.44 4.23-4.76 8.47-10.05 11.11-15.88 4.76-9.79 1.06-20.11-8.47-21.96-16.4-3.44-32.81-3.44-46.3 9.79-34.66 33.34-68.53 67.47-104.25 99.75-31.22 28.31-63.76 54.5-96.31 80.96-8.73 6.88-19.31 11.64-29.63 15.61-8.73 3.44-11.64.79-15.61-8.2-3.18-7.67-3.97-15.35-2.38-23.81 6.61-36.25 18.52-70.64 31.49-104.78 5.82-15.61 13.76-30.16 20.11-45.77 6.88-17.2 12.17-35.45 19.84-52.12 28.84-61.91 57.41-123.56 87.58-184.68 42.86-86.78 86.52-173.04 131.5-258.76 40.75-78.05 83.87-155.05 125.94-232.57 25.93-47.89 51.59-95.78 77.26-143.4 8.2-15.08 15.35-30.96 24.87-44.98 13.23-19.31 28.31-37.31 42.33-56.36 31.49-42.86 60.59-87.05 84.4-135.2 4.5-9 9-18.26 11.64-28.05 3.7-12.7-4.23-23.81-16.67-24.08l-3.66-.02c-9.79 0-19.58.53-29.37 1.59m-.53.26z"/><path class="fil0" d="M4608.27 2110.1h770.32v296.97h-770.32z" style="clip-path:url(#id4)"/><g style="clip-path:url(#id5)"><path id="_1_1" style="fill:url(#id12);fill-rule:nonzero" d="m4695.2 1863.19-183.54 509.85 780.67 281.04 183.54-509.85z"/></g><path class="fil2" d="M4662.73 2368.7c0-21.17 3.44-41.8 6.09-66.68 5.82 4.76 8.47 6.61 10.85 9 6.88 7.67 12.96 16.14 20.11 23.55 4.76 5.29 6.09 10.32 2.38 16.4-6.88 10.58-15.61 19.31-26.72 24.61-1.85.79-3.7 1.32-5.29 1.32-4.23 0-7.14-2.91-7.14-8.2m74.34-105.57c6.09 9 7.14 15.35.26 21.96-6.88-6.61-5.56-12.96-.26-21.96zm8.99-27.25c5.82 6.09 5.03 11.91.53 20.11-7.67-10.58-7.67-11.11-.53-20.11zm216.7 46.3c18.26-35.45 43.39-63.5 78.58-80.43 8.47-3.97 16.93-3.97 25.14 1.06 5.29 3.18 6.35 7.67 2.65 12.7-2.65 3.44-5.82 6.88-9.26 9.53-28.58 22.49-57.41 44.71-86.52 66.94-2.91 2.12-6.61 2.91-12.96 5.82 1.06-7.41.79-11.91 2.65-15.35m210.59-164.04c-12.44 11.11-25.93 21.43-37.04 34.13-11.11 12.44-23.02 15.08-37.84 11.64-11.11-2.65-23.02-4.23-34.4-4.23-24.08 0-46.83 7.41-68 19.31-33.34 18.79-65.62 39.42-87.05 74.08-2.65 4.23-6.61 7.67-10.32 10.58-25.93 19.58-53.45 36.51-83.34 48.95-8.73 3.7-17.73 6.61-29.9 11.11 1.06-8.2 1.06-12.17 1.85-15.88 3.97-15.88 6.61-32.28 12.17-47.1 8.73-23.55 1.06-43.13-10.05-62.18-7.94-13.49-20.11-20.11-35.72-18.79-25.4 2.12-49.48 7.94-68.79 27.25-10.05 10.32-21.17 19.31-30.96 29.9-33.87 37.31-48.15 82.81-46.04 134.14 1.06 21.43 15.61 35.45 35.98 35.72l45 .03c3.7 0 8.2 0 11.38-1.85 20.9-10.85 42.07-21.17 53.71-44.19 2.91-5.56 6.61-7.94 12.7-8.2 41.28 0 80.17-11.91 116.95-31.22 5.82-3.18 9.79-2.65 13.76 2.65 5.82 8.2 14.82 12.44 24.08 12.7 19.05.26 38.89 1.32 57.68-2.12 34.4-6.35 61.65-27.78 86.52-52.65 3.97-3.97 7.41-8.2 11.64-11.64 2.12-1.59 5.82-1.32 8.47-1.85.53 2.65 1.32 3.7 1.06 4.5-.79 2.91-1.85 5.82-2.91 8.47-7.94 20.64-12.96 41.54-10.85 64.03 1.85 20.37 7.14 28.58 25.93 33.34 20.9 5.03 42.33 3.44 63.24-.26 28.31-5.03 54.5-16.67 80.16-29.63 41.8-21.17 80.96-47.63 119.59-74.88 4.5-3.18 9-6.35 12.44-10.32 6.61-7.67 3.7-16.93-5.82-19.31-4.23-1.06-8.73-1.32-12.7-3.18-6.88-3.18-12.96-2.12-19.31 1.59-4.23 2.65-8.47 4.76-12.7 7.41-55.52 33.19-113.29 64.34-171.57 92.22-4.23 1.85-8.73 2.65-14.29 4.23-.53-5.56-1.59-9-1.06-12.44 2.38-11.38 5.03-22.75 8.47-33.87 12.17-39.42 29.9-76.2 47.63-112.98 8.47-17.2 17.2-34.4 25.4-51.59 5.82-11.91 2.65-22.49-7.94-24.34-4.76-.79-9.53-1.59-14.29-1.59-8.2 0-15.88 1.85-23.02 8.2l.1.11z"/><path class="fil0" d="M6373.19 1867.58h119.22v54.41h-119.22z" style="clip-path:url(#id6)"/><g style="clip-path:url(#id7)"><path id="_1_2" style="fill:url(#id11);fill-rule:nonzero" d="m6386.59 1828.69-31.46 87.37 125.94 45.38 31.46-87.39-125.94-45.35z"/></g><path class="fil2" d="M6432.52 1875.78c-8.2 3.97-16.93 7.14-25.4 11.11-9.53 4.76-19.05 9.79-28.05 15.35-3.18 1.85-6.35 7.67-5.82 10.58.53 3.44 5.56 6.35 9.26 8.2 2.91 1.32 6.61 1.06 10.05.53 19.05-2.12 38.36-3.97 57.15-6.88 10.58-1.59 20.64-4.5 30.96-7.41 4.76-1.06 8.73-3.44 10.05-9.53 4.76-22.75 0-29.63-21.7-29.63l-3.69.01c-1.59-.26-3.44-.53-5.03-.53-8.73 0-18.26 3.44-27.52 7.94m-.26.26z"/><path class="fil0" d="M-8.22 1.47H10761.9v724.16H-8.22z" style="clip-path:url(#id8)"/><g style="clip-path:url(#id9)"><path id="_1_3" style="fill:url(#id10);fill-rule:nonzero" d="M1228.36-3430.38-237.98 642.56l9763.96 3515.25L10992.32 84.87z"/></g><path class="fil2" d="M1334.8 709.23h114.57V18.41H1334.8v690.83-.01zM4119.28 18.14V527.2h-1.85L3818.98 18.14h-120.65v691.09h109.01v-508h2.91l297.39 508h120.91V18.14h-109.27zm1187.18 119.07h2.64l97.9 297.13-199.49-.01 98.94-297.13.01.01zm-58.74-119.07L4996.9 709.23h118.01l61.38-182.83 260.87.01 61.38 182.83 122.77-.01-251.62-691.09h-121.97zm998.8 0v104.51h206.9v586.32h114.57V122.65h207.7V18.14h-529.17zm1729.05 0v402.7c0 23.28-1.06 46.83-3.18 70.64-2.12 23.81-8.2 45.51-18.26 64.29-10.05 19.05-25.4 34.66-45.77 47.1-20.37 12.17-49.48 18.26-86.52 18.26s-66.15-6.09-86.52-18.26c-20.64-12.17-35.72-28.05-45.77-47.1-10.05-19.05-16.14-40.48-18.26-64.29-2.12-23.81-3.18-47.36-3.18-70.64l.02-402.7h-114.57v442.38c0 44.45 6.35 83.08 19.31 116.15 12.7 32.81 30.96 60.59 54.5 82.55 23.55 22.23 51.59 38.89 84.67 49.74 33.07 10.85 69.59 16.4 109.8 16.4 40.22 0 76.99-5.56 109.8-16.4 33.07-10.85 61.12-27.52 84.67-49.74 23.55-22.23 41.54-49.74 54.5-82.55 12.7-32.81 19.05-71.7 19.05-116.15l.01-442.38h-114.3zm1069.98 98.69h185.73c14.55 0 28.84 1.32 42.6 3.97 13.76 2.65 25.93 7.67 36.51 15.35 10.58 7.94 19.05 18.52 25.14 32.54 6.09 13.76 9 31.75 9 53.71 0 36.78-9.53 64.29-28.31 82.81-18.79 18.26-46.57 27.52-83.34 27.52h-187.6v-215.9h.27zm-114.57-98.69v691.09h114.3V424.81h168.54c26.19 0 47.63 3.44 64.56 10.58 16.67 7.14 29.9 18.26 39.69 33.34 9.79 15.08 16.4 34.13 20.11 57.15 3.7 23.02 5.56 50.27 5.56 81.76 0 16.93.79 34.13 2.38 52.39 1.32 17.99 6.61 34.66 15.08 49.21l122.76-.01c-12.17-14.29-21.17-37.84-26.99-71.17-5.82-33.34-8.73-70.11-8.73-110.86 0-27.25-3.18-49.74-9.53-67.73-6.35-17.99-14.55-32.81-24.34-43.92-9.79-11.38-20.37-19.58-31.49-24.61-11.38-5.29-21.96-8.47-31.49-9.53v-2.12c5.56-1.85 14.29-5.82 25.93-11.64 11.91-5.82 24.08-15.35 36.25-28.58 12.17-13.23 22.75-30.69 32.01-52.39 9-21.7 13.76-48.95 13.76-81.76 0-58.74-17.99-104.51-53.98-137.32-35.98-32.81-89.96-49.48-161.93-49.48l-312.45.02zm1353.88 0v691.09h477.04V604.72h-362.48V402.58h329.67v-98.69h-329.67V122.92h356.13V18.41h-470.43l-.26-.26v-.01zM256.36 1.74c-29.37 0-58.21 3.97-87.05 12.17-28.84 8.2-54.24 20.64-76.99 37.31-22.49 16.93-40.75 37.84-54.5 63.5-13.76 25.4-20.64 55.56-20.64 90.49 0 18.26 2.38 35.98 6.88 53.45 4.5 17.46 12.44 33.87 23.28 49.21 11.11 15.61 25.66 29.37 44.45 42.07 18.52 12.44 41.8 22.75 69.85 30.43 45.24 12.96 83.08 23.28 114.04 31.49 30.69 8.2 57.68 16.67 80.96 25.66 13.49 5.29 25.93 14.02 37.04 26.72 11.38 12.7 16.93 32.01 16.93 58.47 0 12.96-2.38 25.66-7.41 38.1-4.76 12.7-12.7 23.81-23.81 33.34-11.11 9.53-25.4 17.46-43.13 23.81-17.73 6.09-38.89 9-64.03 9-23.28 0-44.71-2.65-64.56-8.2a151.55 151.55 0 0 1-52.64-26.21 119.027 119.027 0 0 1-35.7-46.03c-8.47-18.79-12.96-41.28-12.96-67.73l-114.59-.01c.79 42.6 8.2 79.64 23.02 110.86 14.55 31.22 34.13 56.89 58.47 76.99 24.34 19.84 53.18 34.93 85.99 44.45 33.07 9.79 68 14.55 105.3 14.55 32.28 0 64.03-3.97 95.25-12.17 31.22-7.94 59-20.64 83.34-38.1 24.34-17.46 44.19-39.95 59-67.2 14.81-27.25 22.49-60.59 22.49-99.22 0-17.99-2.65-35.98-7.94-54.24-5.29-17.99-13.23-34.93-23.81-50.8-10.58-15.88-24.08-29.9-39.69-42.07-15.88-12.17-34.4-21.96-55.83-29.1-8.47-2.65-22.75-6.61-42.6-12.17-19.84-5.56-40.22-11.11-60.85-16.93-20.9-5.82-39.42-11.11-56.36-16.14-16.67-4.76-26.46-7.67-28.84-8.2-23.28-7.14-42.07-17.73-56.36-31.49-14.29-13.76-21.43-33.07-21.43-57.68 0-17.46 3.7-32.01 11.38-43.39 7.67-11.64 17.2-20.9 28.84-27.78 11.64-6.88 24.34-11.64 38.36-14.55s27.78-4.23 41.28-4.23c39.69 0 72.23 9.26 97.9 27.52 25.66 18.52 39.95 49.74 43.13 94.46l114.31-.01c0-35.98-6.61-68-20.11-95.25a203.252 203.252 0 0 0-54.48-69.32 231.94 231.94 0 0 0-79.65-42.07C321.72 6.24 289.44 1.47 255.3 1.47l1.06.26v.01zm2324.9 0c-48.95 0-92.6 9.53-131.5 29.1-38.63 19.31-71.44 45.51-98.43 78.32-26.99 32.81-47.36 71.44-61.91 115.09-14.29 43.92-21.43 90.49-21.43 139.44s7.14 96.31 21.43 140.23c14.29 43.92 34.93 82.29 61.91 115.09 26.69 32.79 60.37 59.37 98.43 77.78 38.89 19.05 82.55 28.58 131.5 28.58 39.69 0 74.88-7.14 105.3-21.17 30.43-14.29 61.12-39.69 91.55-76.46l17.46 81.23h73.29v-363.8h-278.34v91.81h173.83c-.53 29.1-4.76 55.56-12.96 79.38-7.94 23.81-19.58 43.92-35.19 60.33-15.61 16.4-34.66 29.1-57.15 37.84-22.75 8.73-48.68 12.7-77.79 12.17-34.93 0-64.82-7.41-90.22-22.23a182.767 182.767 0 0 1-61.9-59.53c-15.88-24.87-27.52-52.92-35.19-84.67-7.54-31.35-11.39-63.56-11.39-95.82v-1.05c0-32.81 3.7-65.09 11.38-96.84 7.67-31.49 19.31-59.8 35.19-84.67 15.88-24.87 36.51-44.71 61.91-59.53s55.3-22.23 90.22-22.23c20.64 0 40.48 2.91 59.53 8.73 19.05 5.82 35.98 14.55 51.33 26.19 15.35 11.64 28.05 25.93 38.1 43.13 10.05 17.2 16.67 36.78 19.58 59.53l111.65.04c-4.23-38.63-14.55-72.76-31.22-102.66-15.59-28.56-36.79-53.76-62.18-74.09-25.14-19.58-53.45-34.4-85.46-44.45-32.01-10.05-65.88-15.08-101.07-15.08l-.26.26v.01z"/></g></g></svg>