<svg xmlns="http://www.w3.org/2000/svg" xmlns:xlink="http://www.w3.org/1999/xlink"><defs><clipPath id="a"><path fill="#fff" transform="translate(.961)" d="M0 0h83.077v45H0z"/></clipPath><clipPath id="a"><path fill="#fff" d="M0 0h144v78H0z"/></clipPath></defs><symbol id="bsx_logo"><g fill="none"><path fill-rule="evenodd" clip-rule="evenodd" d="m48.74 16.966-.016-.026-2.302 3.7h-2.925l3.656-5.759-3.408-5.486h2.91l2.07 3.33 2.068-3.33h2.925l-.019.031-4.959 7.54ZM38.705 20.77c-1.722 0-3.273-.66-4.652-1.979l1.447-1.834c1.172 1.062 2.255 1.593 3.251 1.593.446 0 .796-.1 1.05-.298a.947.947 0 0 0 .288-.353.984.984 0 0 0 .094-.451c0-.092-.012-.184-.035-.273V14.11c.692.247 1.254.568 1.684.964.57.526.855 1.292.855 2.3 0 1.009-.365 1.826-1.096 2.454-.732.627-1.694.941-2.886.941Zm-.374-9.427c-.405 0-.723.099-.957.297a.965.965 0 0 0-.265.352 1 1 0 0 0-.085.437c0 .029.003.057.005.085h-.012v3.181c-.69-.248-1.229-.538-1.619-.87-.586-.498-.879-1.281-.879-2.348s.371-1.89 1.113-2.47c.741-.579 1.667-.868 2.777-.868a6.483 6.483 0 0 1 2.178.386c.693.238 1.337.61 1.898 1.094l-1.229 1.834c-.944-.74-1.919-1.11-2.925-1.11Zm-9.46 9.298h-4.76v-6.682h2.472v-.01h1.106c.674 0 1.175-.075 1.501-.225.327-.15.49-.475.49-.974 0-.498-.15-.828-.45-.989-.302-.16-.81-.241-1.525-.241h-1.122V9.395h1.76c.736 0 1.371.091 1.905.274.535.182.937.428 1.206.74.488.579.731 1.233.732 1.962 0 .88-.275 1.534-.825 1.963a2.96 2.96 0 0 1-.389.281c-.073.038-.202.1-.389.185.674.15 1.21.464 1.61.941.4.477.6 1.07.6 1.778a3.082 3.082 0 0 1-.779 2.075c-.601.698-1.649 1.046-3.142 1.046Zm.864-4.464c-.368-.166-.957-.25-1.766-.25h-1.431v2.59h1.665c.694 0 1.216-.088 1.563-.265.348-.177.522-.525.521-1.045 0-.52-.184-.864-.552-1.03ZM21.6 9.392h2.518v2.164H21.6V9.392ZM53.891 20.64H51.2l-1.63-2.716h2.632l1.69 2.716Z" fill="#333"/><path d="M15.319 9.245h1.9c.221 0 .442.018.663.052.225.03.427.095.605.195.177.095.321.23.432.404.11.174.165.406.165.695 0 .299-.081.548-.245.748-.158.194-.37.334-.633.418v.015c.168.025.319.075.453.15.14.07.257.162.353.276.101.11.178.24.23.39.053.149.08.308.08.478 0 .279-.058.513-.173.703a1.397 1.397 0 0 1-.446.448 1.913 1.913 0 0 1-.62.247c-.225.05-.45.075-.676.075h-2.088V9.245Zm1.123 2.116h.813c.087 0 .17-.01.252-.03a.693.693 0 0 0 .23-.097.47.47 0 0 0 .16-.18.529.529 0 0 0 .064-.269.464.464 0 0 0-.072-.269.448.448 0 0 0-.173-.172.75.75 0 0 0-.245-.082c-.09-.02-.18-.03-.266-.03h-.763v1.13Zm0 2.19h1.008c.086 0 .173-.01.259-.03a.679.679 0 0 0 .245-.104.552.552 0 0 0 .173-.194.556.556 0 0 0 .072-.292.451.451 0 0 0-.094-.299.534.534 0 0 0-.223-.18 1.125 1.125 0 0 0-.295-.082 2.107 2.107 0 0 0-.296-.022h-.85v1.204Zm.129 4.961-1.915-3.036h1.397l1.08 1.981 1.145-1.981h1.332l-1.915 3.036v2.258H16.57v-2.258Z" fill="#333"/><path d="M3.12 10.357c-1.723 0-3.12 1.45-3.12 3.24 0 .86.329 1.685.914 2.292l4.613 4.79a.377.377 0 0 0 .546 0l4.613-4.79a3.305 3.305 0 0 0 .914-2.291c0-1.79-1.397-3.241-3.12-3.241-.829 0-1.622.341-2.208.95l-.472.49-.472-.49a3.063 3.063 0 0 0-2.207-.95Z" fill="#C10014"/></g></symbol><symbol id="cart"><g fill="none"><path d="M21.206 21.938H4.794a.823.823 0 0 1-.812-.722l-1.443-13a.812.812 0 0 1 .803-.903h19.317a.812.812 0 0 1 .802.903l-1.442 13a.823.823 0 0 1-.813.721Z" stroke="#333" stroke-width="1.083" stroke-linecap="round" stroke-linejoin="round"/><path d="M8.938 10.563v-3.25a4.062 4.062 0 1 1 8.124 0v3.25" stroke="#333" stroke-width="1.083" stroke-linecap="round" stroke-linejoin="round"/></g></symbol><symbol id="facebook"><g fill="none"><path d="M7.41 4.883V7.83h3.643l-.577 3.97H7.41v9.144a13.703 13.703 0 0 1-4.048-.043V11.8H0V7.83h3.36V4.226A4.05 4.05 0 0 1 7.41.174v.002l.02-.002h3.624v3.433H8.686c-.704 0-1.276.571-1.276 1.275v.001Z" fill="#2D0009"/></g></symbol><symbol id="heart"><g fill="none"><path d="M21.304 2.591a5.828 5.828 0 0 0-1.879-1.177A6.122 6.122 0 0 0 17.21 1c-.76 0-1.513.14-2.215.414a5.83 5.83 0 0 0-1.879 1.177L12 3.638 10.884 2.59C9.798 1.572 8.326 1 6.79 1c-1.536 0-3.008.572-4.094 1.59C1.61 3.61 1 4.991 1 6.431c0 1.441.61 2.823 1.696 3.841L3.81 11.32 12 19l8.188-7.681 1.116-1.047a5.422 5.422 0 0 0 1.255-1.762A5.14 5.14 0 0 0 23 6.432c0-.713-.15-1.42-.44-2.079a5.422 5.422 0 0 0-1.256-1.762Z" stroke="#333" stroke-width="1.08" stroke-linecap="round" stroke-linejoin="round"/></g></symbol><symbol id="instagram"><g fill="none"><path d="M16.493 0H5.541A5.494 5.494 0 0 0 .054 5.489V15.51A5.494 5.494 0 0 0 5.541 21h10.952a5.494 5.494 0 0 0 5.488-5.489V5.49A5.494 5.494 0 0 0 16.492 0ZM1.99 5.489a3.556 3.556 0 0 1 3.55-3.553h10.952a3.556 3.556 0 0 1 3.552 3.553V15.51a3.556 3.556 0 0 1-3.552 3.553H5.541A3.556 3.556 0 0 1 1.99 15.51V5.49Z" fill="#2D0009"/><path d="M11.018 15.604a5.11 5.11 0 0 0 5.104-5.105 5.11 5.11 0 0 0-5.104-5.105 5.11 5.11 0 0 0-5.104 5.105 5.11 5.11 0 0 0 5.104 5.105Zm0-8.273a3.172 3.172 0 0 1 3.168 3.17 3.172 3.172 0 0 1-3.168 3.168A3.172 3.172 0 0 1 7.849 10.5a3.172 3.172 0 0 1 3.169-3.169Zm5.576-1.113a1.376 1.376 0 1 0-.002-2.75 1.376 1.376 0 0 0 .002 2.75Z" fill="#2D0009"/></g></symbol><symbol id="logo"><g fill="none"><g clip-path="url(#a)" fill="#231F20"><path d="M.961 26.855c.045-.05.116-.09.13-.148.236-.954.638-1.832 1.057-2.704a61.024 61.024 0 0 1 2.049-3.856c.508-.882 1.008-1.768 1.53-2.641.647-1.084 1.307-2.16 1.963-3.235.496-.814 1-1.62 1.504-2.43.085-.139.183-.27.272-.404.067-.108.139-.212.192-.329.112-.243.094-.288-.111-.454-.036-.027-.063-.059-.094-.09.004-.036 0-.072.013-.086.3-.373.612-.728 1.018-.98.37-.234.763-.207 1.16-.126.116.022.134.108.094.207a2.67 2.67 0 0 1-.188.396c-.687 1.187-1.365 2.38-2.066 3.558-.736 1.242-1.49 2.47-2.24 3.703-.544.89-1.102 1.768-1.642 2.663-.245.405-.455.828-.674 1.251-.303.58-.593 1.166-.892 1.755-.41.814-.835 1.62-1.227 2.443-.192.41-.326.855-.482 1.282-.018.045-.01.104-.01.198.077-.04.135-.054.175-.09.103-.099.2-.207.294-.31 1.393-1.548 2.771-3.11 4.182-4.639 1.883-2.042 3.788-4.067 5.689-6.092.589-.625 1.187-1.241 1.79-1.858.785-.796 1.574-1.583 2.364-2.375.576-.576 1.156-1.143 1.736-1.714a49.224 49.224 0 0 1 3.962-3.541c1.067-.855 2.155-1.678 3.302-2.416 1.071-.689 2.169-1.314 3.347-1.773.941-.369 1.91-.607 2.918-.598.304 0 .607.045.884.198.321.18.513.454.58.837.093.548.031 1.088-.08 1.624-.295 1.385-.795 2.69-1.326 3.986a78.223 78.223 0 0 1-1.954 4.377c-.393.824-.794 1.643-1.205 2.452-.482.95-.968 1.895-1.464 2.84a540.48 540.48 0 0 1-1.69 3.212c-.492.922-.991 1.84-1.5 2.758-.95 1.718-1.905 3.433-2.86 5.151-.362.653-.741 1.291-1.102 1.944-.282.508-.55 1.03-.813 1.548a167.37 167.37 0 0 0-1.053 2.07c-.785 1.551-1.575 3.099-2.258 4.71-.379.89-.75 1.786-1.088 2.695-.255.679-.447 1.38-.429 2.128.005.238.072.382.281.468.139.054.268.14.389.225.049.036.111.125.102.17-.018.064-.089.149-.147.163-.17.031-.344.04-.518.04a1.82 1.82 0 0 1-.83-.184c-.325-.162-.504-.428-.513-.824-.013-.549.116-1.062.268-1.575a21.56 21.56 0 0 1 .986-2.676c.5-1.134 1.026-2.259 1.549-3.384.29-.62.589-1.237.892-1.849.299-.603.611-1.201.92-1.8.316-.616.628-1.232.95-1.844a955.85 955.85 0 0 1 1.91-3.59c.49-.914.99-1.823 1.49-2.727.54-.98 1.084-1.953 1.624-2.933.817-1.49 1.638-2.979 2.44-4.477a129.55 129.55 0 0 0 1.531-2.929 99.646 99.646 0 0 0 2.29-4.787c.473-1.07.919-2.15 1.302-3.262.29-.841.563-1.691.66-2.587.041-.346.046-.702.028-1.053-.018-.395-.228-.607-.594-.562a7.76 7.76 0 0 0-1.32.284c-1.156.364-2.205.98-3.227 1.646-1.615 1.053-3.137 2.25-4.591 3.537a162.078 162.078 0 0 0-3.579 3.257c-.87.819-1.71 1.674-2.561 2.52-1.941 1.93-3.807 3.94-5.672 5.952-.99 1.062-1.936 2.168-2.905 3.253-.615.688-1.236 1.372-1.856 2.06-.843.931-1.682 1.863-2.53 2.79-.299.323-.63.625-1.058.724-.473.108-.928.072-1.338-.243-.036-.027-.08-.036-.12-.054v-.832l-.01-.014Zm62.266-8.251c-.063-.05-.112-.117-.13-.108-.053.031-.093.085-.138.135.045.036.085.094.13.094.04 0 .08-.067.138-.121Zm5.716 1.485c.165 0 .272-.081.357-.275-.183.045-.3.113-.357.274Zm-19.09.436c-.057-.059-.084-.104-.12-.117-.38-.13-.754-.261-1.138-.373-.062-.018-.178.04-.218.099a7.322 7.322 0 0 0-.41.733c-.028.054-.023.162.013.202.03.036.124.032.187.014a59.28 59.28 0 0 0 1.45-.428c.076-.022.143-.076.237-.135m.736.594c-.12.027-.2.032-.268.059-.883.36-1.798.54-2.74.585-.299.013-.566-.045-.78-.288-.09-.104-.143-.212-.121-.351.067-.477.2-.918.567-1.242.321-.288.705-.378 1.115-.387.857-.018 1.67.158 2.428.599.13.076.227.045.325-.05.206-.189.326-.445.402-.702.178-.558.482-1.044.745-1.547.3-.58.603-1.166.893-1.75a595.521 595.521 0 0 0 1.669-3.415c.392-.815.776-1.634 1.164-2.448a3696.41 3696.41 0 0 0 2.892-6.11c.116-.243.116-.243-.067-.445a.903.903 0 0 1 .843-.608c.138 0 .277 0 .415.014.281.022.388.184.286.472-.13.36-.268.72-.429 1.067a1153.29 1153.29 0 0 1-2.182 4.692c-.33.702-.66 1.4-1 2.097-.745 1.534-1.494 3.064-2.244 4.593-.517 1.058-1.044 2.106-1.562 3.159-.03.063-.049.135-.089.252.139-.045.237-.068.326-.108 1.111-.473 2.222-.936 3.324-1.431 1.147-.518 2.285-1.07 3.418-1.615a62.907 62.907 0 0 0 4.355-2.295c1.085-.62 2.178-1.223 3.226-1.907a82.588 82.588 0 0 0 3.704-2.574c1.133-.823 2.231-1.696 3.347-2.537a.606.606 0 0 1 .308-.13c.205-.019.415-.01.624-.005.108 0 .215.031.255.153.044.13-.04.202-.125.27-.737.589-1.464 1.183-2.209 1.759a62.969 62.969 0 0 1-3.82 2.73c-1.325.878-2.663 1.737-4.051 2.489a165.87 165.87 0 0 1-4.15 2.182 99.857 99.857 0 0 1-3.128 1.498c-1.17.535-2.347 1.048-3.525 1.566-.745.328-1.49.647-2.24.971-.107.045-.219.077-.219.234 0 .176-.013.329.16.455a860.41 860.41 0 0 1 5.088 3.662c.392.284.78.585 1.173.873.076.058.156.103.246.157.696-1.237 1.378-2.452 2.088-3.711-.103.031-.16.04-.21.063-.75.431-1.54.764-2.347 1.034-.357.122-.723.117-1.08.045-.299-.063-.468-.369-.397-.729a4.08 4.08 0 0 1 .214-.769c.33-.751.683-1.494 1.031-2.236.08-.175.192-.328.09-.544-.019-.04.022-.149.066-.18.268-.203.576-.203.87-.117.201.058.304.306.237.513-.076.225-.152.45-.25.666-.308.674-.62 1.34-.937 2.01-.098.212-.094.42-.027.653.08-.027.147-.031.21-.063.928-.5 1.852-.999 2.78-1.503.263-.14.517-.297.776-.45a.301.301 0 0 0 .098-.085c.116-.171.228-.342.362-.544-.268-.153-.402-.4-.482-.675-.054-.185-.076-.378-.103-.567-.031-.212.063-.37.21-.509.446-.418 1.24-.512 1.758-.198.295.18.402.473.415.81 0 .086-.054.171-.085.257-.08.211-.165.427-.236.643-.05.149-.005.27.138.342.183.085.362.184.544.256.143.055.184.144.179.293-.018.36-.156.68-.281 1.003a7.741 7.741 0 0 1-.09.225c.135.086.22 0 .304-.045.607-.342 1.21-.684 1.816-1.021.147-.081.295-.158.45-.212.451-.162.777-.521 1.12-.836.228-.207.46-.351.755-.396.085-.014.17-.036.254-.059.41-.126.79-.04 1.156.162.067.036.13.095.178.153a.489.489 0 0 1-.075.72c-.304.238-.66.369-1.018.486-.437.14-.883.265-1.33.382-.169.045-.303.122-.379.297-.151.342-.321.675-.46 1.026-.098.243-.044.301.197.288.473-.032.915-.194 1.352-.382.692-.297 1.339-.698 1.972-1.116.156-.104.232-.252.308-.423.433-.985.87-1.97 1.326-2.947.486-1.04.99-2.074 1.508-3.1.46-.922.941-1.827 1.419-2.74.575-1.102 1.15-2.209 1.744-3.307.75-1.394 1.509-2.785 2.267-4.17.745-1.355 1.5-2.704 2.236-4.063.125-.225.285-.338.508-.365.201-.022.398-.031.598-.031.223 0 .366.207.3.432-.05.175-.13.342-.21.508-.429.869-.955 1.67-1.518 2.448-.25.342-.522.666-.758 1.017-.17.252-.3.54-.446.81-.464.863-.924 1.732-1.388 2.6-.754 1.404-1.526 2.794-2.258 4.211a228.839 228.839 0 0 0-2.36 4.684c-.545 1.102-1.058 2.222-1.576 3.343-.142.305-.232.634-.357.944-.111.28-.258.545-.361.828-.232.617-.442 1.242-.562 1.899a.714.714 0 0 0 .044.432c.067.162.125.211.281.148.183-.072.375-.157.532-.283.584-.477 1.173-.954 1.73-1.463.639-.58 1.246-1.2 1.87-1.804.246-.238.54-.238.835-.175.17.036.236.22.152.396a1.33 1.33 0 0 1-.201.288c-.75.837-1.504 1.669-2.379 2.362-.606.481-1.245.909-1.972 1.156-.401.135-.808.216-1.231.167a1.162 1.162 0 0 1-.415-.14.536.536 0 0 1-.264-.45 4.357 4.357 0 0 1 .174-1.61c.04-.122.067-.244.116-.437-.151.063-.245.095-.33.14-.428.247-.87.458-1.347.57a7.58 7.58 0 0 1-1 .163 5.79 5.79 0 0 1-.883 0 1.94 1.94 0 0 1-.482-.09c-.241-.077-.37-.28-.353-.544.014-.207.072-.414.112-.635-.098-.031-.179.04-.263.072-.26.104-.514.216-.777.31-.366.136-.754.117-1.133.1a1.179 1.179 0 0 1-.424-.122c-.237-.117-.308-.373-.214-.666l.254-.783c.013-.054.044-.112.036-.162-.014-.063-.05-.148-.099-.175-.049-.027-.129 0-.182.031-.05.032-.08.095-.116.149-1.009 1.516-2.013 3.032-2.928 4.616-.098.175-.2.346-.294.522-.067.13-.152.189-.295.18-.111-.01-.223 0-.339.004-.027 0-.053.032-.111.068.2.153.383.288.566.427 1.058.792 2.106 1.593 3.173 2.367.513.373 1.053.71 1.588 1.052a784.606 784.606 0 0 0 6.368 4.027c1.593.999 3.181 1.998 4.775 2.992 1.155.724 2.32 1.444 3.48 2.164.875.545 1.75 1.089 2.624 1.638.067.04.125.103.192.14.076.03.165.076.236.058.357-.077.656.076.92.288.365.297.593.72.794 1.151.062.136-.023.239-.21.257a1.61 1.61 0 0 1-.933-.175 14.62 14.62 0 0 1-1.927-1.256c-.848-.634-1.74-1.183-2.633-1.727-.942-.576-1.87-1.166-2.802-1.746-.995-.62-1.99-1.237-2.986-1.858-1.186-.742-2.378-1.485-3.565-2.232-1.062-.666-2.124-1.322-3.177-1.997-1.562-1-3.123-1.993-4.667-3.02-.638-.422-1.236-.926-1.852-1.385-1.705-1.269-3.41-2.542-5.118-3.802-.732-.544-1.477-1.07-2.218-1.601-.236-.167-.272-.153-.401.121-.326.715-.643 1.435-.978 2.142-.67 1.399-1.352 2.79-2.03 4.184-.518 1.066-1.035 2.132-1.562 3.194-.415.842-.839 1.683-1.258 2.52-.37.742-.732 1.489-1.111 2.222-.42.82-.844 1.638-1.388 2.371-.13.176-.277.275-.486.248l-.643-.081c-.125-.014-.174-.095-.174-.225.005-.306 0-.612 0-.914 0-.238.031-.292.232-.373.16-.063.33-.117.495-.162a.573.573 0 0 0 .393-.324c.571-1.17 1.165-2.33 1.74-3.5.763-1.543 1.526-3.087 2.285-4.634.45-.927.892-1.858 1.339-2.785.58-1.201 1.16-2.398 1.74-3.595.143-.297.281-.594.424-.89.022-.046.022-.104.049-.221m-19.58-.414c-.094.166-.116.279.005.4.12-.121.102-.234-.005-.4Zm.17-.13c.08-.15.093-.257-.01-.365-.124.162-.124.17.01.364Zm-1.397.832c-.049.45-.111.823-.111 1.206 0 .134.098.184.223.126.2-.1.357-.253.482-.446.066-.108.044-.202-.04-.297-.126-.135-.242-.288-.362-.427-.04-.045-.09-.077-.192-.167m5.234-.076c.116-.05.183-.063.232-.104.518-.4 1.035-.805 1.553-1.21a.903.903 0 0 0 .17-.175c.067-.09.049-.171-.045-.23a.448.448 0 0 0-.45-.018c-.634.306-1.085.814-1.415 1.458-.031.063-.027.148-.045.279Zm-3.132.477c.218-.081.379-.135.535-.203a6.8 6.8 0 0 0 1.495-.886.832.832 0 0 0 .187-.19c.389-.625.964-.998 1.562-1.34.384-.211.79-.346 1.218-.346.206 0 .415.031.616.076.268.063.482.014.678-.211.201-.225.442-.414.665-.617.201-.18.442-.162.67-.121.191.036.245.225.142.44-.147.311-.307.622-.46.932-.32.666-.633 1.336-.856 2.047a7.71 7.71 0 0 0-.152.617c-.013.058.01.121.018.225.098-.032.183-.04.255-.077a35.107 35.107 0 0 0 3.078-1.67c.076-.044.152-.085.228-.134.112-.067.223-.085.348-.027.072.031.152.04.228.058.17.04.223.207.107.347-.063.076-.143.13-.223.189-.692.495-1.393.967-2.147 1.354-.46.234-.932.445-1.441.535-.38.068-.759.095-1.138.005-.339-.085-.433-.234-.464-.603-.036-.41.054-.787.196-1.16.018-.05.04-.104.054-.154.004-.013-.005-.036-.018-.085-.049.009-.116 0-.152.031-.075.059-.138.14-.21.207-.446.45-.936.837-1.552.954-.34.063-.692.045-1.035.04a.51.51 0 0 1-.429-.229c-.071-.099-.142-.103-.245-.05-.66.352-1.357.563-2.097.567-.107 0-.174.045-.228.149-.21.418-.593.607-.964.8-.058.032-.134.032-.205.032-.268.005-.54.005-.808 0-.366-.004-.629-.256-.647-.648-.04-.926.215-1.75.826-2.429.174-.194.375-.36.553-.544.348-.351.781-.46 1.236-.495a.63.63 0 0 1 .638.342c.201.341.34.702.183 1.124-.102.27-.152.567-.219.855-.013.068-.017.14-.035.288"/></g></g></symbol><symbol id="logo_footer"><g fill="none"><g clip-path="url(#a)" fill="#2D0009"><path d="M0 46.549c.077-.086.201-.156.224-.258.41-1.653 1.106-3.173 1.833-4.686 1.099-2.277 2.297-4.5 3.55-6.684.882-1.528 1.748-3.064 2.653-4.577 1.122-1.88 2.267-3.744 3.404-5.607.858-1.412 1.732-2.808 2.606-4.211.147-.242.317-.468.472-.702.116-.188.24-.367.332-.57.194-.42.163-.499-.193-.787-.062-.047-.108-.102-.162-.156.007-.063 0-.125.023-.148.518-.648 1.06-1.264 1.763-1.7.642-.406 1.323-.36 2.011-.219.201.04.232.187.163.359a4.63 4.63 0 0 1-.325.686c-1.191 2.059-2.367 4.125-3.581 6.169-1.276 2.152-2.583 4.281-3.883 6.418-.944 1.544-1.91 3.065-2.846 4.616-.426.702-.79 1.435-1.168 2.169-.526 1.005-1.029 2.02-1.547 3.04-.712 1.412-1.446 2.808-2.127 4.235-.333.71-.565 1.482-.835 2.223-.031.078-.016.18-.016.343.132-.07.232-.094.302-.156.178-.171.348-.359.51-.538 2.414-2.683 4.803-5.389 7.248-8.04 3.264-3.54 6.566-7.05 9.861-10.56a242.663 242.663 0 0 1 3.102-3.22c1.36-1.38 2.73-2.745 4.099-4.118.998-.998 2.003-1.98 3.009-2.97a85.31 85.31 0 0 1 6.868-6.138c1.848-1.482 3.735-2.909 5.723-4.188 1.856-1.193 3.76-2.277 5.801-3.073 1.632-.639 3.31-1.052 5.058-1.037.526 0 1.052.078 1.532.343.557.312.89.788 1.005 1.45.163.952.054 1.888-.139 2.816-.51 2.402-1.377 4.664-2.297 6.91a135.598 135.598 0 0 1-3.388 7.587 195.979 195.979 0 0 1-2.088 4.25 421.47 421.47 0 0 1-2.537 4.921 934.29 934.29 0 0 1-2.931 5.569 318.76 318.76 0 0 1-2.6 4.78c-1.647 2.979-3.302 5.95-4.957 8.93-.626 1.13-1.284 2.237-1.91 3.368a88.18 88.18 0 0 0-1.408 2.683 308.826 308.826 0 0 0-1.825 3.587c-1.362 2.69-2.73 5.373-3.914 8.165a111.02 111.02 0 0 0-1.887 4.671c-.441 1.178-.774 2.394-.743 3.689.008.413.124.663.488.811.24.094.464.242.673.39.085.062.193.218.177.296-.03.11-.154.258-.255.281-.294.055-.595.07-.897.07-.503 0-.99-.093-1.439-.32-.564-.28-.874-.74-.89-1.427-.022-.951.202-1.84.465-2.73.456-1.59 1.052-3.134 1.71-4.64.866-1.964 1.778-3.914 2.683-5.864a152.567 152.567 0 0 1 1.547-3.205c.518-1.045 1.06-2.082 1.593-3.12.55-1.068 1.09-2.136 1.648-3.197 1.098-2.074 2.204-4.148 3.31-6.223a458.61 458.61 0 0 1 2.583-4.725c.936-1.7 1.88-3.385 2.816-5.085 1.415-2.581 2.838-5.163 4.23-7.76a224.768 224.768 0 0 0 2.653-5.076c1.385-2.73 2.723-5.483 3.968-8.298.82-1.856 1.593-3.728 2.259-5.654.502-1.458.974-2.932 1.144-4.484.07-.6.078-1.216.047-1.825-.031-.686-.395-1.052-1.029-.974-.773.1-1.547.257-2.29.49-2.003.632-3.82 1.7-5.591 2.855-2.8 1.825-5.438 3.9-7.96 6.13a283.603 283.603 0 0 0-6.202 5.646c-1.508 1.419-2.962 2.9-4.44 4.367-3.364 3.345-6.597 6.831-9.83 10.317-1.717 1.84-3.357 3.759-5.035 5.638-1.068 1.194-2.143 2.379-3.218 3.572-1.462 1.614-2.916 3.229-4.385 4.835-.519.562-1.09 1.084-1.833 1.256-.82.187-1.61.124-2.32-.421-.063-.047-.14-.063-.21-.094v-1.443L0 46.55Zm107.927-14.303c-.109-.085-.194-.202-.225-.187-.092.055-.162.149-.239.234.077.063.147.164.224.164.069 0 .139-.117.24-.21Zm9.907 2.574c.287 0 .472-.14.619-.476-.317.078-.518.195-.619.476Zm-33.088.757c-.1-.102-.146-.18-.208-.203-.658-.226-1.307-.453-1.973-.648-.108-.03-.309.07-.379.172-.263.405-.495.834-.711 1.271-.047.094-.039.28.023.351.054.063.217.055.325.023a100.67 100.67 0 0 0 2.514-.74c.131-.04.247-.133.41-.234m1.276 1.03c-.21.046-.348.054-.464.1-1.532.624-3.117.936-4.75 1.014-.517.024-.982-.078-1.353-.499-.155-.18-.247-.366-.209-.608.116-.827.348-1.591.983-2.153.556-.499 1.222-.655 1.933-.67 1.485-.031 2.893.273 4.208 1.037.224.133.394.078.564-.086.356-.327.565-.772.697-1.216.309-.967.835-1.81 1.291-2.683.518-1.006 1.044-2.02 1.547-3.034.975-1.973 1.934-3.946 2.893-5.919.68-1.411 1.346-2.83 2.018-4.242 1.663-3.502 3.319-7.003 4.974-10.504a.282.282 0 0 0 .038-.086c.201-.421.201-.421-.116-.772a1.566 1.566 0 0 1 1.462-1.053c.24 0 .48 0 .719.023.488.04.673.32.495.82a22.485 22.485 0 0 1-.742 1.847 1913.53 1913.53 0 0 1-3.782 8.134 311.423 311.423 0 0 1-1.733 3.634 2174.51 2174.51 0 0 1-3.89 7.962c-.897 1.833-1.81 3.65-2.707 5.475-.054.11-.085.234-.155.437.24-.078.41-.117.565-.188 1.925-.818 3.851-1.622 5.762-2.48 1.988-.896 3.96-1.855 5.924-2.799a108.797 108.797 0 0 0 7.549-3.977c1.88-1.076 3.775-2.121 5.592-3.307 2.181-1.411 4.308-2.924 6.42-4.46 1.964-1.428 3.867-2.94 5.801-4.399a1.08 1.08 0 0 1 .533-.226c.356-.031.72-.016 1.083-.008.186 0 .371.055.441.265.077.226-.07.351-.217.468-1.276 1.022-2.536 2.051-3.828 3.05a108.865 108.865 0 0 1-6.621 4.733c-2.297 1.52-4.617 3.01-7.023 4.313a287.558 287.558 0 0 1-7.193 3.782c-1.786.904-3.604 1.755-5.421 2.597-2.027.928-4.069 1.817-6.11 2.714-1.292.569-2.584 1.123-3.883 1.684-.186.078-.38.133-.38.406 0 .304-.023.569.279.787a1405.84 1405.84 0 0 1 8.817 6.348c.68.492 1.354 1.014 2.034 1.513.132.102.271.18.426.273 1.206-2.145 2.39-4.25 3.62-6.434-.178.055-.279.07-.364.11-1.299.748-2.668 1.325-4.068 1.793-.619.21-1.253.203-1.872.078-.518-.109-.812-.64-.688-1.263.092-.453.193-.913.37-1.334.573-1.302 1.184-2.589 1.787-3.876.14-.304.333-.569.155-.943-.03-.07.039-.258.116-.312.464-.351.998-.351 1.508-.203.349.102.526.53.41.89-.131.39-.263.779-.433 1.153a273.556 273.556 0 0 1-1.624 3.486c-.17.367-.162.726-.046 1.131.139-.047.255-.055.363-.11 1.609-.865 3.21-1.73 4.819-2.604.456-.242.897-.515 1.345-.78a.527.527 0 0 0 .171-.148c.201-.296.394-.593.626-.944-.464-.265-.696-.694-.835-1.17-.093-.319-.132-.654-.178-.982-.054-.366.108-.64.363-.881.774-.725 2.151-.89 3.048-.343.51.312.696.819.719 1.404 0 .148-.093.296-.147.444-.139.367-.286.74-.41 1.115-.085.258-.007.468.24.593.317.148.627.32.944.444.247.094.317.25.309.507-.031.624-.271 1.178-.487 1.74-.047.124-.101.257-.155.39.232.147.379 0 .526-.079 1.052-.592 2.096-1.185 3.148-1.77.255-.14.51-.273.781-.366.781-.281 1.346-.905 1.941-1.451.395-.359.797-.608 1.308-.686.146-.024.293-.063.44-.102.712-.218 1.369-.07 2.004.281.116.063.224.164.309.265.333.414.271.928-.131 1.248-.526.413-1.145.64-1.764.842-.758.242-1.531.46-2.305.663-.294.078-.526.21-.657.515-.263.593-.557 1.17-.797 1.778-.17.42-.077.522.34.499.82-.055 1.586-.335 2.344-.663 1.199-.515 2.32-1.209 3.419-1.934.27-.18.402-.437.533-.733a260.475 260.475 0 0 1 2.297-5.108 199.408 199.408 0 0 1 2.615-5.373c.796-1.599 1.632-3.166 2.459-4.75.998-1.91 1.996-3.828 3.024-5.731 1.3-2.418 2.615-4.827 3.929-7.23 1.292-2.347 2.599-4.686 3.875-7.041.217-.39.495-.585.882-.632a9.239 9.239 0 0 1 1.037-.055c.386 0 .634.36.518.749-.085.304-.224.593-.364.881-.742 1.505-1.655 2.893-2.629 4.243-.434.592-.905 1.154-1.315 1.762-.294.437-.518.936-.774 1.404-.804 1.497-1.601 3.002-2.405 4.507-1.307 2.433-2.645 4.843-3.914 7.3-1.4 2.69-2.753 5.396-4.091 8.118-.944 1.91-1.833 3.852-2.731 5.794-.247.53-.402 1.1-.618 1.638-.194.483-.449.943-.627 1.435-.402 1.068-.766 2.152-.974 3.29-.047.266-.031.508.077.75.116.28.217.366.487.257.317-.125.65-.273.921-.492 1.013-.826 2.034-1.653 3.001-2.534 1.106-1.006 2.158-2.082 3.24-3.127.426-.414.936-.414 1.447-.305.294.063.41.383.263.687a2.23 2.23 0 0 1-.348.499c-1.3 1.45-2.607 2.893-4.123 4.094-1.052.834-2.158 1.575-3.418 2.004-.697.234-1.4.374-2.135.289a2.008 2.008 0 0 1-.719-.242c-.271-.156-.434-.429-.457-.78-.062-.951.016-1.887.302-2.792.069-.21.116-.42.201-.756-.263.109-.425.164-.572.242-.743.428-1.509.795-2.336.99a13.15 13.15 0 0 1-1.733.28 9.782 9.782 0 0 1-1.531 0 3.343 3.343 0 0 1-.835-.155c-.418-.133-.642-.484-.611-.944.023-.359.123-.717.193-1.1-.17-.054-.31.07-.456.125-.449.18-.89.375-1.346.538-.634.234-1.307.203-1.965.172a2.049 2.049 0 0 1-.735-.21c-.41-.203-.533-.648-.371-1.155l.441-1.357c.023-.093.077-.195.062-.28-.023-.11-.085-.258-.17-.304-.085-.047-.225 0-.317.054-.085.055-.14.164-.201.257-1.748 2.628-3.489 5.257-5.074 8.002-.17.304-.348.6-.511.904-.116.226-.263.328-.51.312-.194-.015-.387 0-.588.008-.046 0-.093.055-.193.117.348.265.665.5.982.74 1.833 1.373 3.651 2.761 5.499 4.103.89.647 1.825 1.232 2.754 1.825a1353.047 1353.047 0 0 0 11.037 6.98c2.761 1.73 5.514 3.462 8.275 5.185 2.004 1.256 4.022 2.504 6.033 3.751 1.516.944 3.032 1.888 4.548 2.839.116.07.217.18.333.242.131.054.286.132.41.101.618-.133 1.137.133 1.593.5.634.514 1.029 1.247 1.377 1.996.108.233-.039.413-.364.444-.564.047-1.098-.023-1.616-.304-1.176-.624-2.274-1.373-3.342-2.176-1.469-1.1-3.016-2.05-4.563-2.995-1.632-.998-3.241-2.02-4.857-3.025-1.725-1.076-3.45-2.145-5.174-3.221-2.058-1.287-4.123-2.573-6.18-3.868-1.841-1.154-3.682-2.293-5.507-3.463-2.707-1.73-5.414-3.454-8.09-5.232-1.107-.733-2.143-1.607-3.21-2.402-2.955-2.2-5.91-4.406-8.872-6.59-1.268-.944-2.56-1.856-3.844-2.776-.41-.289-.471-.265-.696.21-.564 1.24-1.114 2.488-1.694 3.712-1.16 2.426-2.343 4.836-3.519 7.253a725.68 725.68 0 0 1-2.707 5.537c-.72 1.458-1.454 2.916-2.181 4.367-.642 1.287-1.269 2.581-1.926 3.852-.727 1.42-1.462 2.84-2.405 4.11-.225.304-.48.476-.843.43l-1.114-.141c-.217-.024-.302-.164-.302-.39.008-.53 0-1.06 0-1.583 0-.414.054-.507.402-.648.279-.109.573-.202.859-.28a.993.993 0 0 0 .68-.562c.99-2.027 2.02-4.04 3.017-6.067a2602.69 2602.69 0 0 0 3.96-8.032c.781-1.607 1.547-3.221 2.32-4.828 1.006-2.082 2.011-4.156 3.017-6.23.247-.515.487-1.03.735-1.545.038-.078.038-.179.085-.382m-33.939-.717c-.162.288-.2.483.008.694.21-.21.178-.406-.008-.694Zm.294-.226c.14-.258.163-.445-.015-.632-.217.28-.217.296.015.632Zm-2.42 1.442c-.086.78-.194 1.428-.194 2.09 0 .234.17.32.387.219.348-.172.619-.437.835-.772.116-.187.078-.351-.07-.515-.216-.234-.417-.5-.626-.74-.07-.079-.155-.133-.332-.29m9.072-.132c.201-.086.317-.11.402-.18.897-.693 1.795-1.395 2.692-2.097.108-.086.209-.187.294-.304.116-.156.085-.297-.078-.398-.255-.156-.51-.156-.78-.031-1.1.53-1.88 1.411-2.453 2.527-.054.109-.046.257-.077.483Zm-5.43.827c.38-.14.658-.234.929-.351.928-.39 1.786-.92 2.59-1.536.117-.094.248-.203.325-.328.673-1.084 1.671-1.731 2.707-2.324.666-.367 1.37-.6 2.112-.6.356 0 .72.054 1.067.132.465.11.836.023 1.176-.366.348-.39.766-.718 1.153-1.069.347-.312.765-.28 1.16-.21.332.062.425.39.247.764-.255.538-.534 1.076-.797 1.614-.556 1.154-1.098 2.316-1.485 3.548-.108.351-.185.71-.263 1.069-.023.101.016.21.031.39.17-.055.317-.07.441-.133a60.881 60.881 0 0 0 5.337-2.893c.132-.078.263-.148.395-.234.193-.117.386-.148.603-.047.124.055.263.07.394.102.294.07.387.358.186.6-.108.133-.248.226-.387.328-1.199.857-2.413 1.676-3.72 2.347-.797.405-1.617.772-2.498.928-.658.117-1.315.164-1.973.008-.587-.148-.75-.406-.804-1.045-.062-.71.093-1.365.34-2.012.031-.086.07-.18.093-.265.008-.024-.008-.063-.03-.148-.086.015-.202 0-.264.054-.131.101-.24.242-.363.359-.774.78-1.624 1.45-2.692 1.653-.588.11-1.199.078-1.794.07a.883.883 0 0 1-.743-.398c-.123-.171-.247-.179-.425-.085-1.145.608-2.352.974-3.635.982-.186 0-.302.078-.395.258-.363.725-1.029 1.052-1.67 1.388-.101.054-.233.054-.356.054-.464.008-.936.008-1.4 0-.634-.007-1.09-.444-1.122-1.123-.07-1.606.372-3.033 1.431-4.21.302-.336.65-.625.96-.944.602-.609 1.353-.796 2.142-.858.48-.04.866.164 1.106.593.348.592.587 1.216.317 1.95-.178.467-.263.982-.38 1.48-.022.118-.03.243-.061.5"/></g></g></symbol><symbol id="search"><g fill="none"><path d="m17.814 17.814 4.936 4.936m-10.969-2.438a8.531 8.531 0 1 0 0-17.062 8.531 8.531 0 0 0 0 17.063Z" stroke="#333" stroke-width="1.083" stroke-linecap="round" stroke-linejoin="round"/></g></symbol><symbol id="tiktok"><g fill="none"><path d="M17.98 4.843V8.29a8.813 8.813 0 0 1-4.684-1.933v6.967l-.014-.021c.009.138.014.278.014.42 0 3.46-2.762 6.277-6.158 6.277C3.742 20 .98 17.183.98 13.723s2.762-6.277 6.158-6.277c.333 0 .659.027.978.079v3.397a2.856 2.856 0 0 0-.978-.171c-1.607 0-2.916 1.333-2.916 2.973s1.309 2.972 2.916 2.972c1.608 0 2.917-1.334 2.917-2.973a3.06 3.06 0 0 0-.005-.184V0h3.379l.036.877c.023.575.224 1.126.574 1.578a6.449 6.449 0 0 0 1.867 1.64 6.351 6.351 0 0 0 2.074.75v-.002Z" fill="#2D0009"/></g></symbol><symbol id="user"><g fill="none"><path d="M18 21v-2.222a4.55 4.55 0 0 0-1.245-3.143 4.158 4.158 0 0 0-3.005-1.302h-8.5a4.158 4.158 0 0 0-3.005 1.302A4.55 4.55 0 0 0 1 18.778V21M13.75 5.444c0 2.455-1.903 4.445-4.25 4.445s-4.25-1.99-4.25-4.445C5.25 2.99 7.153 1 9.5 1s4.25 1.99 4.25 4.444Z" stroke="#333" stroke-width="1.08" stroke-linecap="round" stroke-linejoin="round"/></g></symbol></svg>