<svg width="24" height="20" fill="none" xmlns="http://www.w3.org/2000/svg"><path d="M21.304 2.591a5.828 5.828 0 0 0-1.879-1.177A6.122 6.122 0 0 0 17.21 1c-.76 0-1.513.14-2.215.414a5.83 5.83 0 0 0-1.879 1.177L12 3.638 10.884 2.59C9.798 1.572 8.326 1 6.79 1c-1.536 0-3.008.572-4.094 1.59C1.61 3.61 1 4.991 1 6.431c0 1.441.61 2.823 1.696 3.841L3.81 11.32 12 19l8.188-7.681 1.116-1.047a5.422 5.422 0 0 0 1.255-1.762A5.14 5.14 0 0 0 23 6.432c0-.713-.15-1.42-.44-2.079a5.422 5.422 0 0 0-1.256-1.762Z" stroke="#333" stroke-width="1.08" stroke-linecap="round" stroke-linejoin="round"/></svg>