<svg width="22" height="21" fill="none" xmlns="http://www.w3.org/2000/svg"><path d="M16.493 0H5.541A5.494 5.494 0 0 0 .054 5.489V15.51A5.494 5.494 0 0 0 5.541 21h10.952a5.494 5.494 0 0 0 5.488-5.489V5.49A5.494 5.494 0 0 0 16.492 0ZM1.99 5.489a3.556 3.556 0 0 1 3.55-3.553h10.952a3.556 3.556 0 0 1 3.552 3.553V15.51a3.556 3.556 0 0 1-3.552 3.553H5.541A3.556 3.556 0 0 1 1.99 15.51V5.49Z" fill="#2D0009"/><path d="M11.018 15.604a5.11 5.11 0 0 0 5.104-5.105 5.11 5.11 0 0 0-5.104-5.105 5.11 5.11 0 0 0-5.104 5.105 5.11 5.11 0 0 0 5.104 5.105Zm0-8.273a3.172 3.172 0 0 1 3.168 3.17 3.172 3.172 0 0 1-3.168 3.168A3.172 3.172 0 0 1 7.849 10.5a3.172 3.172 0 0 1 3.169-3.169Zm5.576-1.113a1.376 1.376 0 1 0-.002-2.75 1.376 1.376 0 0 0 .002 2.75Z" fill="#2D0009"/></svg>