<svg width="144" height="78" fill="none" xmlns="http://www.w3.org/2000/svg"><g clip-path="url(#a)" fill="#2D0009"><path d="M0 46.549c.077-.086.201-.156.224-.258.41-1.653 1.106-3.173 1.833-4.686 1.099-2.277 2.297-4.5 3.55-6.684.882-1.528 1.748-3.064 2.653-4.577 1.122-1.88 2.267-3.744 3.404-5.607.858-1.412 1.732-2.808 2.606-4.211.147-.242.317-.468.472-.702.116-.188.24-.367.332-.57.194-.42.163-.499-.193-.787-.062-.047-.108-.102-.162-.156.007-.063 0-.125.023-.148.518-.648 1.06-1.264 1.763-1.7.642-.406 1.323-.36 2.011-.219.201.04.232.187.163.359a4.63 4.63 0 0 1-.325.686c-1.191 2.059-2.367 4.125-3.581 6.169-1.276 2.152-2.583 4.281-3.883 6.418-.944 1.544-1.91 3.065-2.846 4.616-.426.702-.79 1.435-1.168 2.169-.526 1.005-1.029 2.02-1.547 3.04-.712 1.412-1.446 2.808-2.127 4.235-.333.71-.565 1.482-.835 2.223-.031.078-.016.18-.016.343.132-.07.232-.094.302-.156.178-.171.348-.359.51-.538 2.414-2.683 4.803-5.389 7.248-8.04 3.264-3.54 6.566-7.05 9.861-10.56a242.663 242.663 0 0 1 3.102-3.22c1.36-1.38 2.73-2.745 4.099-4.118.998-.998 2.003-1.98 3.009-2.97a85.31 85.31 0 0 1 6.868-6.138c1.848-1.482 3.735-2.909 5.723-4.188 1.856-1.193 3.76-2.277 5.801-3.073 1.632-.639 3.31-1.052 5.058-1.037.526 0 1.052.078 1.532.343.557.312.89.788 1.005 1.45.163.952.054 1.888-.139 2.816-.51 2.402-1.377 4.664-2.297 6.91a135.598 135.598 0 0 1-3.388 7.587 195.979 195.979 0 0 1-2.088 4.25 421.47 421.47 0 0 1-2.537 4.921 934.29 934.29 0 0 1-2.931 5.569 318.76 318.76 0 0 1-2.6 4.78c-1.647 2.979-3.302 5.95-4.957 8.93-.626 1.13-1.284 2.237-1.91 3.368a88.18 88.18 0 0 0-1.408 2.683 308.826 308.826 0 0 0-1.825 3.587c-1.362 2.69-2.73 5.373-3.914 8.165a111.02 111.02 0 0 0-1.887 4.671c-.441 1.178-.774 2.394-.743 3.689.008.413.124.663.488.811.24.094.464.242.673.39.085.062.193.218.177.296-.03.11-.154.258-.255.281-.294.055-.595.07-.897.07-.503 0-.99-.093-1.439-.32-.564-.28-.874-.74-.89-1.427-.022-.951.202-1.84.465-2.73.456-1.59 1.052-3.134 1.71-4.64.866-1.964 1.778-3.914 2.683-5.864a152.567 152.567 0 0 1 1.547-3.205c.518-1.045 1.06-2.082 1.593-3.12.55-1.068 1.09-2.136 1.648-3.197 1.098-2.074 2.204-4.148 3.31-6.223a458.61 458.61 0 0 1 2.583-4.725c.936-1.7 1.88-3.385 2.816-5.085 1.415-2.581 2.838-5.163 4.23-7.76a224.768 224.768 0 0 0 2.653-5.076c1.385-2.73 2.723-5.483 3.968-8.298.82-1.856 1.593-3.728 2.259-5.654.502-1.458.974-2.932 1.144-4.484.07-.6.078-1.216.047-1.825-.031-.686-.395-1.052-1.029-.974-.773.1-1.547.257-2.29.49-2.003.632-3.82 1.7-5.591 2.855-2.8 1.825-5.438 3.9-7.96 6.13a283.603 283.603 0 0 0-6.202 5.646c-1.508 1.419-2.962 2.9-4.44 4.367-3.364 3.345-6.597 6.831-9.83 10.317-1.717 1.84-3.357 3.759-5.035 5.638-1.068 1.194-2.143 2.379-3.218 3.572-1.462 1.614-2.916 3.229-4.385 4.835-.519.562-1.09 1.084-1.833 1.256-.82.187-1.61.124-2.32-.421-.063-.047-.14-.063-.21-.094v-1.443L0 46.55Zm107.927-14.303c-.109-.085-.194-.202-.225-.187-.092.055-.162.149-.239.234.077.063.147.164.224.164.069 0 .139-.117.24-.21Zm9.907 2.574c.287 0 .472-.14.619-.476-.317.078-.518.195-.619.476Zm-33.088.757c-.1-.102-.146-.18-.208-.203-.658-.226-1.307-.453-1.973-.648-.108-.03-.309.07-.379.172-.263.405-.495.834-.711 1.271-.047.094-.039.28.023.351.054.063.217.055.325.023a100.67 100.67 0 0 0 2.514-.74c.131-.04.247-.133.41-.234m1.276 1.03c-.21.046-.348.054-.464.1-1.532.624-3.117.936-4.75 1.014-.517.024-.982-.078-1.353-.499-.155-.18-.247-.366-.209-.608.116-.827.348-1.591.983-2.153.556-.499 1.222-.655 1.933-.67 1.485-.031 2.893.273 4.208 1.037.224.133.394.078.564-.086.356-.327.565-.772.697-1.216.309-.967.835-1.81 1.291-2.683.518-1.006 1.044-2.02 1.547-3.034.975-1.973 1.934-3.946 2.893-5.919.68-1.411 1.346-2.83 2.018-4.242 1.663-3.502 3.319-7.003 4.974-10.504a.282.282 0 0 0 .038-.086c.201-.421.201-.421-.116-.772a1.566 1.566 0 0 1 1.462-1.053c.24 0 .48 0 .719.023.488.04.673.32.495.82a22.485 22.485 0 0 1-.742 1.847 1913.53 1913.53 0 0 1-3.782 8.134 311.423 311.423 0 0 1-1.733 3.634 2174.51 2174.51 0 0 1-3.89 7.962c-.897 1.833-1.81 3.65-2.707 5.475-.054.11-.085.234-.155.437.24-.078.41-.117.565-.188 1.925-.818 3.851-1.622 5.762-2.48 1.988-.896 3.96-1.855 5.924-2.799a108.797 108.797 0 0 0 7.549-3.977c1.88-1.076 3.775-2.121 5.592-3.307 2.181-1.411 4.308-2.924 6.42-4.46 1.964-1.428 3.867-2.94 5.801-4.399a1.08 1.08 0 0 1 .533-.226c.356-.031.72-.016 1.083-.008.186 0 .371.055.441.265.077.226-.07.351-.217.468-1.276 1.022-2.536 2.051-3.828 3.05a108.865 108.865 0 0 1-6.621 4.733c-2.297 1.52-4.617 3.01-7.023 4.313a287.558 287.558 0 0 1-7.193 3.782c-1.786.904-3.604 1.755-5.421 2.597-2.027.928-4.069 1.817-6.11 2.714-1.292.569-2.584 1.123-3.883 1.684-.186.078-.38.133-.38.406 0 .304-.023.569.279.787a1405.84 1405.84 0 0 1 8.817 6.348c.68.492 1.354 1.014 2.034 1.513.132.102.271.18.426.273 1.206-2.145 2.39-4.25 3.62-6.434-.178.055-.279.07-.364.11-1.299.748-2.668 1.325-4.068 1.793-.619.21-1.253.203-1.872.078-.518-.109-.812-.64-.688-1.263.092-.453.193-.913.37-1.334.573-1.302 1.184-2.589 1.787-3.876.14-.304.333-.569.155-.943-.03-.07.039-.258.116-.312.464-.351.998-.351 1.508-.203.349.102.526.53.41.89-.131.39-.263.779-.433 1.153a273.556 273.556 0 0 1-1.624 3.486c-.17.367-.162.726-.046 1.131.139-.047.255-.055.363-.11 1.609-.865 3.21-1.73 4.819-2.604.456-.242.897-.515 1.345-.78a.527.527 0 0 0 .171-.148c.201-.296.394-.593.626-.944-.464-.265-.696-.694-.835-1.17-.093-.319-.132-.654-.178-.982-.054-.366.108-.64.363-.881.774-.725 2.151-.89 3.048-.343.51.312.696.819.719 1.404 0 .148-.093.296-.147.444-.139.367-.286.74-.41 1.115-.085.258-.007.468.24.593.317.148.627.32.944.444.247.094.317.25.309.507-.031.624-.271 1.178-.487 1.74-.047.124-.101.257-.155.39.232.147.379 0 .526-.079 1.052-.592 2.096-1.185 3.148-1.77.255-.14.51-.273.781-.366.781-.281 1.346-.905 1.941-1.451.395-.359.797-.608 1.308-.686.146-.024.293-.063.44-.102.712-.218 1.369-.07 2.004.281.116.063.224.164.309.265.333.414.271.928-.131 1.248-.526.413-1.145.64-1.764.842-.758.242-1.531.46-2.305.663-.294.078-.526.21-.657.515-.263.593-.557 1.17-.797 1.778-.17.42-.077.522.34.499.82-.055 1.586-.335 2.344-.663 1.199-.515 2.32-1.209 3.419-1.934.27-.18.402-.437.533-.733a260.475 260.475 0 0 1 2.297-5.108 199.408 199.408 0 0 1 2.615-5.373c.796-1.599 1.632-3.166 2.459-4.75.998-1.91 1.996-3.828 3.024-5.731 1.3-2.418 2.615-4.827 3.929-7.23 1.292-2.347 2.599-4.686 3.875-7.041.217-.39.495-.585.882-.632a9.239 9.239 0 0 1 1.037-.055c.386 0 .634.36.518.749-.085.304-.224.593-.364.881-.742 1.505-1.655 2.893-2.629 4.243-.434.592-.905 1.154-1.315 1.762-.294.437-.518.936-.774 1.404-.804 1.497-1.601 3.002-2.405 4.507-1.307 2.433-2.645 4.843-3.914 7.3-1.4 2.69-2.753 5.396-4.091 8.118-.944 1.91-1.833 3.852-2.731 5.794-.247.53-.402 1.1-.618 1.638-.194.483-.449.943-.627 1.435-.402 1.068-.766 2.152-.974 3.29-.047.266-.031.508.077.75.116.28.217.366.487.257.317-.125.65-.273.921-.492 1.013-.826 2.034-1.653 3.001-2.534 1.106-1.006 2.158-2.082 3.24-3.127.426-.414.936-.414 1.447-.305.294.063.41.383.263.687a2.23 2.23 0 0 1-.348.499c-1.3 1.45-2.607 2.893-4.123 4.094-1.052.834-2.158 1.575-3.418 2.004-.697.234-1.4.374-2.135.289a2.008 2.008 0 0 1-.719-.242c-.271-.156-.434-.429-.457-.78-.062-.951.016-1.887.302-2.792.069-.21.116-.42.201-.756-.263.109-.425.164-.572.242-.743.428-1.509.795-2.336.99a13.15 13.15 0 0 1-1.733.28 9.782 9.782 0 0 1-1.531 0 3.343 3.343 0 0 1-.835-.155c-.418-.133-.642-.484-.611-.944.023-.359.123-.717.193-1.1-.17-.054-.31.07-.456.125-.449.18-.89.375-1.346.538-.634.234-1.307.203-1.965.172a2.049 2.049 0 0 1-.735-.21c-.41-.203-.533-.648-.371-1.155l.441-1.357c.023-.093.077-.195.062-.28-.023-.11-.085-.258-.17-.304-.085-.047-.225 0-.317.054-.085.055-.14.164-.201.257-1.748 2.628-3.489 5.257-5.074 8.002-.17.304-.348.6-.511.904-.116.226-.263.328-.51.312-.194-.015-.387 0-.588.008-.046 0-.093.055-.193.117.348.265.665.5.982.74 1.833 1.373 3.651 2.761 5.499 4.103.89.647 1.825 1.232 2.754 1.825a1353.047 1353.047 0 0 0 11.037 6.98c2.761 1.73 5.514 3.462 8.275 5.185 2.004 1.256 4.022 2.504 6.033 3.751 1.516.944 3.032 1.888 4.548 2.839.116.07.217.18.333.242.131.054.286.132.41.101.618-.133 1.137.133 1.593.5.634.514 1.029 1.247 1.377 1.996.108.233-.039.413-.364.444-.564.047-1.098-.023-1.616-.304-1.176-.624-2.274-1.373-3.342-2.176-1.469-1.1-3.016-2.05-4.563-2.995-1.632-.998-3.241-2.02-4.857-3.025-1.725-1.076-3.45-2.145-5.174-3.221-2.058-1.287-4.123-2.573-6.18-3.868-1.841-1.154-3.682-2.293-5.507-3.463-2.707-1.73-5.414-3.454-8.09-5.232-1.107-.733-2.143-1.607-3.21-2.402-2.955-2.2-5.91-4.406-8.872-6.59-1.268-.944-2.56-1.856-3.844-2.776-.41-.289-.471-.265-.696.21-.564 1.24-1.114 2.488-1.694 3.712-1.16 2.426-2.343 4.836-3.519 7.253a725.68 725.68 0 0 1-2.707 5.537c-.72 1.458-1.454 2.916-2.181 4.367-.642 1.287-1.269 2.581-1.926 3.852-.727 1.42-1.462 2.84-2.405 4.11-.225.304-.48.476-.843.43l-1.114-.141c-.217-.024-.302-.164-.302-.39.008-.53 0-1.06 0-1.583 0-.414.054-.507.402-.648.279-.109.573-.202.859-.28a.993.993 0 0 0 .68-.562c.99-2.027 2.02-4.04 3.017-6.067a2602.69 2602.69 0 0 0 3.96-8.032c.781-1.607 1.547-3.221 2.32-4.828 1.006-2.082 2.011-4.156 3.017-6.23.247-.515.487-1.03.735-1.545.038-.078.038-.179.085-.382m-33.939-.717c-.162.288-.2.483.008.694.21-.21.178-.406-.008-.694Zm.294-.226c.14-.258.163-.445-.015-.632-.217.28-.217.296.015.632Zm-2.42 1.442c-.086.78-.194 1.428-.194 2.09 0 .234.17.32.387.219.348-.172.619-.437.835-.772.116-.187.078-.351-.07-.515-.216-.234-.417-.5-.626-.74-.07-.079-.155-.133-.332-.29m9.072-.132c.201-.086.317-.11.402-.18.897-.693 1.795-1.395 2.692-2.097.108-.086.209-.187.294-.304.116-.156.085-.297-.078-.398-.255-.156-.51-.156-.78-.031-1.1.53-1.88 1.411-2.453 2.527-.054.109-.046.257-.077.483Zm-5.43.827c.38-.14.658-.234.929-.351.928-.39 1.786-.92 2.59-1.536.117-.094.248-.203.325-.328.673-1.084 1.671-1.731 2.707-2.324.666-.367 1.37-.6 2.112-.6.356 0 .72.054 1.067.132.465.11.836.023 1.176-.366.348-.39.766-.718 1.153-1.069.347-.312.765-.28 1.16-.21.332.062.425.39.247.764-.255.538-.534 1.076-.797 1.614-.556 1.154-1.098 2.316-1.485 3.548-.108.351-.185.71-.263 1.069-.023.101.016.21.031.39.17-.055.317-.07.441-.133a60.881 60.881 0 0 0 5.337-2.893c.132-.078.263-.148.395-.234.193-.117.386-.148.603-.047.124.055.263.07.394.102.294.07.387.358.186.6-.108.133-.248.226-.387.328-1.199.857-2.413 1.676-3.72 2.347-.797.405-1.617.772-2.498.928-.658.117-1.315.164-1.973.008-.587-.148-.75-.406-.804-1.045-.062-.71.093-1.365.34-2.012.031-.086.07-.18.093-.265.008-.024-.008-.063-.03-.148-.086.015-.202 0-.264.054-.131.101-.24.242-.363.359-.774.78-1.624 1.45-2.692 1.653-.588.11-1.199.078-1.794.07a.883.883 0 0 1-.743-.398c-.123-.171-.247-.179-.425-.085-1.145.608-2.352.974-3.635.982-.186 0-.302.078-.395.258-.363.725-1.029 1.052-1.67 1.388-.101.054-.233.054-.356.054-.464.008-.936.008-1.4 0-.634-.007-1.09-.444-1.122-1.123-.07-1.606.372-3.033 1.431-4.21.302-.336.65-.625.96-.944.602-.609 1.353-.796 2.142-.858.48-.04.866.164 1.106.593.348.592.587 1.216.317 1.95-.178.467-.263.982-.38 1.48-.022.118-.03.243-.061.5"/></g><defs><clipPath id="a"><path fill="#fff" d="M0 0h144v78H0z"/></clipPath></defs></svg>