<svg xmlns="http://www.w3.org/2000/svg" width="12" height="12" fill="none"><path fill="#000" fill-rule="evenodd" d="M5.854.028a.517.517 0 0 0-.325.326c-.022.062-.027.536-.028 2.611L5.5 5.499l-2.565.006L.37 5.51l-.08.043A.483.483 0 0 0 .011 6c0 .197.095.349.279.447l.08.043 2.565.005 2.564.006.006 2.564.005 2.565.043.08c.098.184.25.279.447.279a.483.483 0 0 0 .447-.279l.043-.08.005-2.565.006-2.564 2.564-.006 2.565-.005.08-.043A.483.483 0 0 0 11.989 6a.483.483 0 0 0-.279-.447l-.08-.043-2.565-.005-2.564-.006-.006-2.564L6.49.37 6.447.29c-.12-.224-.384-.34-.593-.262"/></svg>