<svg width="18" height="20" fill="none" xmlns="http://www.w3.org/2000/svg"><path d="M17.98 4.843V8.29a8.813 8.813 0 0 1-4.684-1.933v6.967l-.014-.021c.009.138.014.278.014.42 0 3.46-2.762 6.277-6.158 6.277C3.742 20 .98 17.183.98 13.723s2.762-6.277 6.158-6.277c.333 0 .659.027.978.079v3.397a2.856 2.856 0 0 0-.978-.171c-1.607 0-2.916 1.333-2.916 2.973s1.309 2.972 2.916 2.972c1.608 0 2.917-1.334 2.917-2.973a3.06 3.06 0 0 0-.005-.184V0h3.379l.036.877c.023.575.224 1.126.574 1.578a6.449 6.449 0 0 0 1.867 1.64 6.351 6.351 0 0 0 2.074.75v-.002Z" fill="currentColor"/></svg>