<svg width="50" height="50" fill="none" xmlns="http://www.w3.org/2000/svg"><path fill="#b3b3b3" style="fill:var(--color1, #b3b3b3)" d="m9.971 25.237.407.241a11.137 11.137 0 0 0 5.674 1.554h.004c6.144 0 11.145-4.999 11.147-11.144a11.073 11.073 0 0 0-3.262-7.884 11.038 11.038 0 0 0-7.855-3.268h-.027.001c-6.149 0-11.149 4.999-11.152 11.143v.016c0 2.193.635 4.237 1.731 5.96l-.027-.045.265.421-1.126 4.112z"/><path fill="#fff" style="fill:var(--color2, #fff)" d="m2.394 29.391 1.903-6.948a13.236 13.236 0 0 1-1.79-6.687v-.017.001C2.51 8.347 8.526 2.333 15.919 2.333c3.587.002 6.955 1.398 9.487 3.932s3.926 5.903 3.925 9.485c-.003 7.392-6.02 13.407-13.412 13.407h-.006c-2.349 0-4.558-.605-6.478-1.667l.069.035z"/><path fill="#000" style="fill:var(--color3, #000)" d="M15.923 4.598c-6.149 0-11.149 4.999-11.152 11.143v.016c0 2.193.635 4.237 1.731 5.96l-.027-.045.265.421-1.126 4.112 4.219-1.106.407.241a11.137 11.137 0 0 0 5.674 1.554h.004c6.144 0 11.145-4.999 11.147-11.144v-.035c0-3.067-1.247-5.843-3.262-7.848a11.038 11.038 0 0 0-7.855-3.268h-.027.001z"/><path fill="#fff" style="fill:var(--color2, #fff)" d="M12.567 10.135c-.251-.558-.515-.569-.754-.579l-.642-.008c-.223 0-.587.084-.894.419s-1.173 1.146-1.173 2.795 1.201 3.242 1.368 3.466 2.318 3.715 5.725 5.058c2.831 1.116 3.407.894 4.021.838s1.983-.811 2.262-1.593.279-1.453.196-1.593-.307-.223-.643-.391-1.983-.978-2.29-1.09-.53-.168-.754.168-.865 1.09-1.061 1.314-.391.252-.726.084-1.415-.521-2.695-1.663c-.996-.888-1.669-1.985-1.864-2.32s-.021-.517.147-.684c.15-.15.335-.391.503-.587s.223-.335.335-.559.056-.419-.028-.587-.735-1.825-1.033-2.488z"/></svg>